<?xml version="1.0" encoding="UTF-8" standalone="no"?><!DOCTYPE svg PUBLIC "-//W3C//DTD SVG 1.1//EN" "http://www.w3.org/Graphics/SVG/1.1/DTD/svg11.dtd"><svg width="100%" height="100%" viewBox="0 0 205 155" version="1.1" xmlns="http://www.w3.org/2000/svg" xmlns:xlink="http://www.w3.org/1999/xlink" xml:space="preserve" style="fill-rule:evenodd;clip-rule:evenodd;stroke-linejoin:round;stroke-miterlimit:1.41421;"><g><g><path d="M122.841,126.918l2.017,8.802l6.331,-1.477l-8.348,-7.325Z" style="fill:#6d2870;"/><path d="M108.598,131.785l16.26,3.935l-2.017,-8.802l-14.243,4.867Z" style="fill:#692671;"/><path d="M133.966,137.891l-9.108,-2.171l6.331,-1.477l2.777,3.648Z" style="fill:#762c6f;"/><path d="M124.858,138.501l9.108,-0.61l-9.108,-2.171l0,2.781Z" style="fill:#42216c;"/><path d="M117.759,134.002l7.099,4.499l0,-2.781l-7.099,-1.718Z" style="fill:#762c6f;"/><path d="M103.148,133.648l14.611,0.354l-9.161,-2.217l-5.45,1.863Z" style="fill:#55226a;"/><path d="M103.2,141.533l14.559,-7.531l-14.559,-0.372l0,7.903Z" style="fill:#42216c;"/><path d="M124.858,138.501l-6.286,1.145l-0.813,-5.644l7.099,4.499Z" style="fill:#42216c;"/><path d="M103.2,141.533l15.372,-1.887l-0.813,-5.644l-14.559,7.531Z" style="fill:#42216c;"/><path d="M91.538,37.532l-2.269,11.668l5.569,-2.86l-3.3,-8.808Z" style="fill:#823970;"/><path d="M97.791,39.938l-6.253,-2.406l3.3,8.808l2.953,-6.402Z" style="fill:#823970;"/><path d="M91.538,22.232l0,15.3l6.253,2.406l2.3,-9.451l-8.553,-8.255Z" style="fill:#93557b;"/><path d="M86.881,31.919l4.657,5.613l0,-15.3l-4.657,9.687Z" style="fill:#ecd4c3;"/><path d="M77.389,23.557l8.342,-6.93l5.807,5.605l-14.149,1.325Z" style="fill:#eecbca;"/><path d="M77.389,29.015l14.149,-6.783l-14.149,1.325l0,5.458Z" style="fill:#ecc9c8;"/><path d="M86.881,31.919l-9.492,-2.904l14.149,-6.783l-4.657,9.687Z" style="fill:#ecd4c3;"/><path d="M82.653,44.829l8.885,-7.297l-4.657,-5.613l-4.228,12.91Z" style="fill:#ecd4c3;"/><path d="M89.269,49.2l-6.616,-4.371l8.885,-7.297l-2.269,11.668Z" style="fill:#ecd4c3;"/><path d="M74.485,60.723l8.168,-15.894l6.616,4.371l-14.784,11.523Z" style="fill:#ecd4c3;"/><path d="M82.653,30.625l0,14.204l4.228,-12.91l-4.228,-1.294Z" style="fill:#ecd4c3;"/><path d="M77.389,29.015l-1.486,9.359l6.75,-7.749l-5.264,-1.61Z" style="fill:#eecbca;"/><path d="M82.653,44.829l-6.75,-6.455l6.75,-7.749l0,14.204Z" style="fill:#ecd4c3;"/><path d="M77.389,29.015l-11.394,1.61l9.908,7.749l1.486,-9.359Z" style="fill:#eecbca;"/><path d="M65.002,27.611l0.993,3.014l11.394,-1.61l-12.387,-1.404Z" style="fill:#eecbca;"/><path d="M70.378,22.388l-5.376,5.223l12.387,1.404l0,-5.458l-7.011,-1.169Z" style="fill:#eecbca;"/><path d="M85.731,16.627l-15.353,5.761l7.011,1.169l8.342,-6.93Z" style="fill:#ecc9c8;"/><path d="M72.262,17.448l-1.884,4.94l15.353,-5.761l-13.469,0.821Z" style="fill:#eecbca;"/><path d="M61.318,20.214l-2.427,4.923l11.558,-2.775l1.813,-4.914l-10.944,2.766Z" style="fill:#eecbca;"/><path d="M65.002,27.611l-6.111,-2.474l11.558,-2.775l-5.447,5.249Z" style="fill:#d7839a;"/><path d="M56.78,33.19l8.222,-5.579l-6.111,-2.474l-2.111,8.053Z" style="fill:#d7839a;"/><path d="M52.818,22.362l8.474,-2.142l-2.401,4.917l-6.073,-2.775Z" style="fill:#ecc9c8;"/><path d="M43.756,37.438l15.135,-12.301l-6.073,-2.775l-9.062,15.076Z" style="fill:#ecc9c8;"/><path d="M42.012,26.227l1.744,11.211l9.062,-15.076l-10.806,3.865Z" style="fill:#ecc9c8;"/><path d="M58.891,25.137l-2.111,8.053l-13.024,4.248l15.135,-12.301Z" style="fill:#db90a4;"/><path d="M65.995,30.625l-9.215,2.565l8.222,-5.579l0.993,3.014Z" style="fill:#e9b8b6;"/><path d="M63.138,40.22l2.857,-9.595l9.893,7.738l-12.75,1.857Z" style="fill:#eecbca;"/><path d="M69.513,45.32l6.375,-6.957l-12.75,1.857l6.375,5.1Z" style="fill:#cf7a91;"/><path d="M82.653,44.829l-6.843,-6.455l-6.297,6.946l13.14,-0.491Z" style="fill:#ecd4c3;"/><path d="M61.909,53.03l20.744,-8.201l-13.14,0.491l-7.604,7.71Z" style="fill:#ecd4c3;"/><path d="M74.485,60.723l8.168,-15.894l-20.744,8.201l12.576,7.693Z" style="fill:#ecd4c3;"/><path d="M60.703,60.723l13.782,0l-12.576,-7.693l-1.206,7.693Z" style="fill:#eecbca;"/><path d="M61.909,70.219l12.576,-9.496l-13.782,0l1.206,9.496Z" style="fill:#e3b6aa;"/><path d="M73.871,73.235l0.614,-12.512l-12.576,9.496l11.962,3.016Z" style="fill:#e3b6aa;"/><path d="M87.473,67.426l-13.602,5.809l0.614,-12.512l12.988,6.703Z" style="fill:#e3b6aa;"/><path d="M80.144,75.107l-6.273,-1.872l13.602,-5.809l-7.329,7.681Z" style="fill:#8d2e78;"/><path d="M199.418,92.983l-3.63,5.18l7.916,-4.802l1.093,-7.104l-5.379,6.726Z" style="fill:#b65a77;"/><path d="M189.772,93.361l6.016,4.802l3.63,-5.18l-9.646,0.378Z" style="fill:#c6678d;"/><path d="M185.312,103.066l10.476,-4.903l-6.016,-4.802l-4.46,9.705Z" style="fill:#c6678d;"/><path d="M179.024,100.062l6.288,3.004l4.46,-9.705l-10.748,6.701Z" style="fill:#d1868d;"/><path d="M170.901,110.534l8.123,-10.472l6.288,3.004l-14.411,7.468Z" style="fill:#d1868d;"/><path d="M159.609,100.062l19.415,0l-8.123,10.472l-11.292,-10.472Z" style="fill:#b65a77;"/><path d="M164.236,95.552l-4.627,4.51l19.415,0l-14.788,-4.51Z" style="fill:#6d2870;"/><path d="M155.941,103.638l14.96,6.896l-11.292,-10.472l-3.668,3.576Z" style="fill:#d1868d;"/><path d="M185.312,103.066l-3.927,8.076l-10.484,-0.608l14.411,-7.468Z" style="fill:#d1868d;"/><path d="M200.091,95.552l-6.417,9.746l-8.362,-2.232l10.476,-4.903l4.303,-2.611Z" style="fill:#8c2f78;"/><path d="M188.196,107.52l5.478,-2.222l-8.362,-2.232l2.884,4.454Z" style="fill:#963f94;"/><path d="M181.385,111.142l6.811,-3.622l-2.884,-4.454l-3.927,8.076Z" style="fill:#963f94;"/><path d="M158.784,111.926l12.117,-1.392l-14.96,-6.896l2.843,8.288Z" style="fill:#d1868d;"/><path d="M152.1,125.446l18.801,-14.912l-12.117,1.392l-6.684,13.52Z" style="fill:#8a3a71;"/><path d="M164.653,124.296l-12.553,1.15l18.801,-14.912l-6.248,13.762Z" style="fill:#b65a77;"/><path d="M181.385,111.142l-13.32,5.638l2.836,-6.246l10.484,0.608Z" style="fill:#d1868d;"/><path d="M180.495,116.78l-12.43,0l13.32,-5.638l-0.89,5.638Z" style="fill:#d1868d;"/><path d="M188.196,107.52l-7.701,9.26l0.89,-5.638l6.811,-3.622Z" style="fill:#c7688e;"/><path d="M191.896,106.02l0.601,7.637l-4.301,-6.137l3.7,-1.5Z" style="fill:#b45891;"/><path d="M185.838,110.356l6.659,3.301l-4.301,-6.137l-2.358,2.836Z" style="fill:#dba097;"/><path d="M187.002,123.451l5.495,-9.794l-6.659,-3.301l1.164,13.095Z" style="fill:#dba097;"/><path d="M180.495,116.78l0,4.913l6.507,1.758l-1.164,-13.095l-5.343,6.424Z" style="fill:#dba097;"/><path d="M168.065,116.78l-3.412,7.516l15.842,-2.603l0,-4.913l-12.43,0Z" style="fill:#dba097;"/><path d="M168.739,129.303l-4.086,-5.007l7.921,-1.302l-3.835,6.309Z" style="fill:#c7688e;"/><path d="M180.072,127.529l-11.333,1.774l3.835,-6.309l7.498,4.535Z" style="fill:#c7688e;"/><path d="M180.495,121.693l-0.423,5.836l-7.498,-4.535l7.921,-1.301Z" style="fill:#c7688e;"/><path d="M187.002,123.451l-6.93,4.078l0.423,-5.836l6.507,1.758Z" style="fill:#dba097;"/><path d="M182.179,133.204l-2.107,-5.675l6.93,-4.078l-4.823,9.753Z" style="fill:#dba097;"/><path d="M168.739,129.303l13.44,3.901l-2.107,-5.675l-11.333,1.774Z" style="fill:#b45891;"/><path d="M176.05,139.708l6.129,-6.504l-13.44,-3.901l7.311,10.405Z" style="fill:#b45891;"/><path d="M166.477,141.097l9.573,-1.389l-7.311,-10.405l-2.262,11.794Z" style="fill:#8a3a71;"/><path d="M157.242,132.66l11.497,-3.357l-4.086,-5.007l-12.553,1.15l5.142,7.214Z" style="fill:#8a3a71;"/><path d="M166.477,141.097l-9.235,-8.437l11.497,-3.357l-2.262,11.794Z" style="fill:#b65a77;"/><path d="M161.076,146.383l-3.834,-13.723l9.235,8.437l-5.401,5.286Z" style="fill:#8a3a71;"/><path d="M144.883,133.86l16.193,12.523l-3.834,-13.723l-12.359,1.2Z" style="fill:#762c6f;"/><path d="M140.188,146.068l4.695,-12.208l16.193,12.523l-20.888,-0.315Z" style="fill:#5b266b;"/><path d="M152.1,125.446l-7.217,8.414l12.359,-1.2l-5.142,-7.214Z" style="fill:#8a3a71;"/><path d="M142.378,126.119l2.505,7.741l7.217,-8.414l-9.722,0.673Z" style="fill:#762c6f;"/><path d="M131.189,134.243l13.694,-0.383l-4.695,12.208l-8.999,-11.825Z" style="fill:#5b266b;"/><path d="M133.184,129.653l-1.995,4.59l13.694,-0.383l-11.699,-4.207Z" style="fill:#963f94;"/><path d="M142.388,126.118l-9.204,3.535l11.699,4.207l-2.495,-7.742Z" style="fill:#762c6f;"/><path d="M152.1,125.446l-7.217,-7.933l-2.495,8.605l9.712,-0.672Z" style="fill:#55226a;"/><path d="M158.784,111.926l-13.901,5.587l7.217,7.933l6.684,-13.52Z" style="fill:#5b266b;"/><path d="M155.941,103.638l-11.058,13.875l13.901,-5.587l-2.843,-8.288Z" style="fill:#6d2870;"/><path d="M147.073,105.324l-2.19,12.189l11.058,-13.875l-8.868,1.686Z" style="fill:#5b266b;"/><path d="M133.066,112.956l14.007,-7.632l-2.19,12.189l-11.817,-4.557Z" style="fill:#e5b6b3;"/><path d="M136.415,123.415l-3.349,-10.459l11.817,4.557l-8.468,5.902Z" style="fill:#dba097;"/><path d="M142.388,126.118l-5.973,-2.703l8.468,-5.902l-2.495,8.605Z" style="fill:#dba097;"/><path d="M133.184,129.653l3.231,-6.238l5.973,2.703l-9.204,3.535Z" style="fill:#c6678d;"/><path d="M122.841,126.918l8.348,7.325l1.995,-4.59l-10.343,-2.735Z" style="fill:#963f94;"/><path d="M122.395,120.278l10.789,9.375l3.231,-6.238l-14.02,-3.137Z" style="fill:#c7688e;"/><path d="M122.841,126.918l10.343,2.735l-10.789,-9.375l0.446,6.64Z" style="fill:#8a2f77;"/><path d="M133.184,112.956l-4.924,-5.191l18.813,-2.441l-13.889,7.632Z" style="fill:#e5b6b3;"/><g><path d="M136.415,123.415l-3.349,-10.459l-10.671,7.322l14.02,3.137Z" style="fill:#752c71;"/><path d="M112.407,111.977l9.988,8.301l10.671,-7.322l-25.386,-5.712l4.727,4.733Z" style="fill:#813871;"/><path d="M128.26,107.765l-20.58,-0.521l25.386,5.712l-4.806,-5.191Z" style="fill:#b65a77;"/><path d="M114.615,103.241l-6.935,4.003l20.58,0.521l-13.645,-4.524Z" style="fill:#ba5b81;"/><path d="M56.289,88.205l3.324,-7.289l-8.921,3.327l5.597,3.962Z" style="fill:#d1868d;"/><path d="M16.851,77.736l4.851,5.008l-0.391,-11.142l-4.46,6.134Z" style="fill:#9c4694;"/><path d="M22.601,85.573l-0.899,-2.829l-7.619,-1.958l8.518,4.787Z" style="fill:#782490;"/><path d="M16.851,77.736l-2.768,3.05l7.619,1.958l-4.851,-5.008Z" style="fill:#7d2593;"/><path d="M9.212,74.323l4.871,6.463l2.768,-3.05l-3.263,-4.109l-4.376,0.696Z" style="fill:#913185;"/><path d="M9.212,85.869l13.389,-0.296l-8.518,-4.787l-10.708,3.066l5.837,2.017Z" style="fill:#c7688e;"/><path d="M25.534,88.964l-2.933,-3.391l-13.389,0.296l8.274,6.848l8.048,-3.753Z" style="fill:#cf7a91;"/><path d="M25.534,97.961l-8.048,-5.244l27.128,0.938l-19.08,4.306Z" style="fill:#963f94;"/><path d="M25.534,88.964l8.009,4.308l-16.057,-0.555l8.048,-3.753Z" style="fill:#cf7a91;"/><path d="M22.601,85.573l2.933,3.391l9.572,-3.82l-12.505,0.429Z" style="fill:#652680;"/><path d="M21.702,82.744l0.899,2.829l12.505,-0.429l-13.404,-2.4Z" style="fill:#5c2972;"/><path d="M33.543,93.272l1.563,-8.128l-9.592,3.797l8.029,4.331Z" style="fill:#62267b;"/><path d="M44.614,93.655l-11.071,-0.383l1.563,-8.128l9.508,8.511Z" style="fill:#5b2572;"/><path d="M43.557,87.707l-8.451,-2.563l9.508,8.511l5.164,2.884l-6.221,-8.832Z" style="fill:#552868;"/><path d="M50.692,84.243l-0.914,12.296l-6.221,-8.832l7.135,-3.464Z" style="fill:#5b266b;"/><path d="M56.289,88.205l-1.136,5.172l-4.461,-9.134l5.597,3.962Z" style="fill:#752871;"/><path d="M49.778,96.539l4.677,1.765l0.698,-4.927l-4.461,-9.134l-0.914,12.296Z" style="fill:#6d2870;"/><path d="M68.031,91.406l-0.865,-7.707l10.007,6.614l-9.142,1.093Z" style="fill:#9d337d;"/><path d="M77.173,90.313l0.515,10.404l-9.657,-9.311l9.142,-1.093Z" style="fill:#692671;"/><path d="M114.615,103.241l-17.858,-3.224l-3.281,-9.645l21.139,12.869Z" style="fill:#c6678d;"/><path d="M86.965,100.286l-9.792,-9.973l19.584,9.704l-9.792,0.269Z" style="fill:#b65a77;"/><path d="M77.688,100.717l9.277,-0.431l-9.792,-9.973l0.515,10.404Z" style="fill:#6f2a72;"/><path d="M84.503,107.765l2.462,-7.479l-9.277,0.431l6.815,7.048Z" style="fill:#511770;"/><path d="M92.806,108.036l-5.841,-7.75l-2.462,7.479l8.303,0.271Z" style="fill:#8d2e78;"/><path d="M96.757,100.017l-3.951,8.019l-5.841,-7.75l9.792,-0.269Z" style="fill:#c16672;"/><path d="M107.68,107.244l-10.923,-7.227l17.858,3.224l-6.935,4.003Z" style="fill:#b56f7d;"/><path d="M92.806,108.036l14.874,-0.792l-10.923,-7.227l-3.951,8.019Z" style="fill:#823970;"/><path d="M94.864,114.77l12.816,-7.526l-14.874,0.792l2.058,6.734Z" style="fill:#8a3a71;"/><path d="M54.496,102.51l-0.041,-4.206l0.698,-4.927l8.488,7.34l-9.145,1.793Z" style="fill:#5b266b;"/><path d="M51.76,110.059l2.736,-7.549l-4.718,-5.971l1.982,13.52Z" style="fill:#b45891;"/><path d="M32.733,96.336l17.045,0.203l-5.164,-2.884l-11.881,2.681Z" style="fill:#b45891;"/><path d="M63.641,100.717l-4.805,9.342l-4.34,-7.549l9.145,-1.793Z" style="fill:#5b266b;"/><path d="M66.129,115.012l-7.293,-4.953l4.805,-9.342l2.488,14.295Z" style="fill:#42216c;"/><path d="M70.318,105.217l-4.189,9.795l-2.488,-14.295l6.677,4.5Z" style="fill:#55226a;"/><path d="M84.503,107.765l-18.374,7.247l4.189,-9.795l14.185,2.548Z" style="fill:#e9b8b6;"/><path d="M79.901,119.464l-7.691,-6.85l12.293,-4.849l-4.602,11.699Z" style="fill:#e9b8b6;"/><path d="M90.431,122.38l-10.53,-2.916l14.963,-4.694l-4.433,7.61Z" style="fill:#dba097;"/><path d="M112.238,111.807l-17.374,2.963l12.816,-7.526l4.558,4.563Z" style="fill:#823970;"/><path d="M100.815,120.278l11.423,-8.471l-17.374,2.963l5.951,5.508Z" style="fill:#772c72;"/><path d="M112.238,111.807l-11.423,8.471l21.58,0l-10.157,-8.471Z" style="fill:#762c6f;"/><path d="M72.21,112.614l7.691,6.85l-14.718,0.653l7.027,-7.503Z" style="fill:#e9b8b6;"/><path d="M9.212,74.323l-5.51,-8.912l4.417,-1.416l1.093,10.328Z" style="fill:#9e4697;"/><path d="M87.473,67.426l-7.329,7.681l17.361,1.916l-10.032,-9.597Z" style="fill:#692671;"/><path d="M110.644,72.495l-2.945,-6.275l-10.194,10.803l13.139,-4.528Z" style="fill:#c36979;"/></g><path d="M93.476,90.372l21.139,12.869l-3.304,-13.281l-17.835,0.412Z" style="fill:#dfa39e;"/><path d="M101.386,80.35l-7.91,10.022l17.835,-0.412l-9.925,-9.61Z" style="fill:#dfa39e;"/><path d="M94.187,80.037l-0.711,10.335l7.91,-10.022l-7.199,-0.313Z" style="fill:#d79590;"/><path d="M80.144,75.107l13.332,15.265l0.711,-10.335l-14.043,-4.93Z" style="fill:#c7688e;"/><path d="M72.862,80.037l7.282,-4.93l13.332,15.265l-20.614,-10.335Z" style="fill:#dfa39e;"/><path d="M73.871,73.235l-1.009,6.802l7.282,-4.93l-6.273,-1.872Z" style="fill:#d99c9b;"/><path d="M56.289,76.09l17.582,-2.855l-11.962,-3.016l-5.62,5.871Z" style="fill:#eecbca;"/><path d="M45.749,76.09l10.54,0l5.62,-5.871l-16.16,5.871Z" style="fill:#e9b8b6;"/><path d="M53.829,67.844l-8.08,8.246l16.16,-5.871l-8.08,-2.375Z" style="fill:#e9b8b6;"/><path d="M56.906,59.94l5.003,10.279l-1.206,-9.496l-3.797,-0.783Z" style="fill:#c7688e;"/><path d="M61.909,53.03l-5.003,6.91l3.797,0.783l1.206,-7.693Z" style="fill:#c7688e;"/><path d="M57.687,48.607l6.909,1.661l-2.687,2.762l-4.222,-4.423Z" style="fill:#96317c;"/><path d="M56.906,40.312l0.781,8.295l6.909,1.661l-7.69,-9.956Z" style="fill:#7e2a73;"/><path d="M63.138,40.312l1.458,9.956l4.917,-4.948l-6.375,-5.008Z" style="fill:#cf7a91;"/><path d="M56.906,40.312l7.69,9.956l-1.458,-9.956l-6.232,0Z" style="fill:#c7688e;"/><path d="M65.995,30.625l-2.857,9.595l-6.232,0.092l-0.126,-7.122l9.215,-2.565Z" style="fill:#d7839a;"/><path d="M50.29,40.22l6.49,-7.03l0.126,7.122l-6.616,-0.092Z" style="fill:#96317c;"/><path d="M43.756,37.438l6.534,2.782l6.49,-7.03l-13.024,4.248Z" style="fill:#db90a4;"/><path d="M33.386,41.045l10.37,-3.607l-1.744,-11.211l-8.626,14.818Z" style="fill:#e4c3c2;"/><path d="M35.297,30.107l-5.151,7.87l3.24,3.068l8.626,-14.818l-6.715,3.88Z" style="fill:#e4c3c2;"/><path d="M29.418,42.858l0.728,-4.881l3.24,3.068l-3.968,1.813Z" style="fill:#e4c3c2;"/><path d="M43.756,37.438l-12.669,15.739l2.299,-12.132l10.37,-3.607Z" style="fill:#ecc9c8;"/><path d="M29.418,42.858l1.669,10.319l2.299,-12.132l-3.968,1.813Z" style="fill:#ecc9c8;"/><path d="M45.181,51.375l-14.094,1.802l12.669,-15.739l1.425,13.937Z" style="fill:#ecc9c8;"/><path d="M49.854,49.059l-6.098,-11.621l1.425,13.937l4.673,-2.316Z" style="fill:#d7839a;"/><path d="M50.29,40.22l-0.436,8.839l-6.098,-11.621l6.534,2.782Z" style="fill:#d7839a;"/><path d="M56.906,40.312l-7.052,8.747l0.436,-8.839l6.616,0.092Z" style="fill:#96317c;"/><path d="M57.687,48.607l-7.833,0.452l7.052,-8.747l0.781,8.295Z" style="fill:#7e2a73;"/><path d="M56.906,59.94l0.781,-11.333l4.222,4.423l-5.003,6.91Z" style="fill:#cf7a91;"/><path d="M49.854,49.059l-2.821,7.154l9.873,3.727l0.781,-11.333l-7.833,0.452Z" style="fill:#eecbca;"/><path d="M45.181,51.375l1.852,4.838l2.821,-7.154l-4.673,2.316Z" style="fill:#e9b8b6;"/><path d="M53.829,67.844l-6.796,-11.631l9.873,3.727l5.003,10.279l-8.08,-2.375Z" style="fill:#eecbca;"/><path d="M41.832,68.426l5.201,-12.213l6.796,11.631l-11.997,0.582Z" style="fill:#eecbca;"/><path d="M45.181,51.375l-3.349,17.051l5.201,-12.213l-1.852,-4.838Z" style="fill:#c7688e;"/><path d="M37.497,59.94l4.335,8.486l3.349,-17.051l-7.684,8.565Z" style="fill:#c7688e;"/><path d="M31.087,53.177l6.446,6.724l7.648,-8.526l-14.094,1.802Z" style="fill:#d7839a;"/><path d="M22.485,47.85l8.602,5.327l-1.669,-10.319l-6.933,4.992Z" style="fill:#ecc9c8;"/><path d="M19.798,39.515l9.62,3.343l0.728,-4.881l-10.348,1.538Z" style="fill:#96317c;"/><path d="M22.485,47.85l6.933,-4.992l-9.62,-3.343l2.687,8.335Z" style="fill:#72336e;"/><path d="M15.402,58.123l7.083,-10.273l-2.687,-8.335l-4.396,18.608Z" style="fill:#72336e;"/><path d="M31.087,53.177l-15.685,4.946l7.083,-10.273l8.602,5.327Z" style="fill:#ecc9c8;"/><path d="M23.244,63.203l-7.842,-5.08l15.685,-4.946l-7.843,10.026Z" style="fill:#ecc9c8;"/><path d="M37.533,59.901l-14.289,3.302l7.843,-10.026l6.446,6.724Z" style="fill:#ecc9c8;"/><path d="M12.354,66.848l10.89,-3.645l-7.842,-5.08l-3.048,8.725Z" style="fill:#e5b6b4;"/><path d="M8.119,63.995l4.235,2.853l3.048,-8.725l-7.283,5.872Z" style="fill:#e5b6b4;"/><path d="M9.212,74.323l3.142,-7.475l-4.235,-2.853l1.093,10.328Z" style="fill:#eabdba;"/><path d="M13.588,73.627l-1.234,-6.779l-3.142,7.475l4.376,-0.696Z" style="fill:#eabdba;"/><path d="M21.311,71.602l-8.957,-4.754l1.234,6.779l7.723,-2.025Z" style="fill:#eabdba;"/><path d="M23.244,63.203l-1.933,8.399l-8.957,-4.754l10.89,-3.645Z" style="fill:#eabcbb;"/><path d="M37.533,59.901l-16.222,11.701l1.933,-8.399l14.289,-3.302Z" style="fill:#ecc9c8;"/><path d="M31.901,75.551l5.632,-15.65l-16.222,11.701l10.59,3.949Z" style="fill:#d7839a;"/><path d="M35.106,85.144l-3.205,-9.593l5.632,-15.65l-2.427,25.243Z" style="fill:#b65a77;"/><path d="M41.728,78.995l-6.622,6.149l1.006,-10.468l5.616,4.319Z" style="fill:#9d337d;"/><path d="M41.832,68.426l-5.72,6.25l1.421,-14.775l4.299,8.525Z" style="fill:#dfa39e;"/><path d="M45.749,76.09l-3.917,-7.664l11.997,-0.582l-8.08,8.246Z" style="fill:#e9b8b6;"/><path d="M36.112,74.676l5.616,4.316l0.104,-10.566l-5.72,6.25Z" style="fill:#dfa39e;"/><path d="M45.749,76.09l-4.021,2.902l0.104,-10.566l3.917,7.664Z" style="fill:#e9b8b6;"/><path d="M50.692,84.243l5.597,-8.153l-10.54,0l4.943,8.153Z" style="fill:#dfa39e;"/><path d="M59.715,80.878l14.156,-7.643l-17.582,2.855l-5.597,8.153l9.023,-3.365Z" style="fill:#d69a95;"/><path d="M67.166,83.699l5.696,-3.662l1.009,-6.802l-6.705,10.464Z" style="fill:#d99c9b;"/><path d="M59.613,80.916l7.553,2.783l6.705,-10.464l-14.258,7.681Z" style="fill:#dfa39e;"/><path d="M43.557,87.707l7.135,-3.464l-4.943,-8.153l-2.192,11.617Z" style="fill:#dfa39e;"/><path d="M41.728,78.992l1.829,8.715l2.192,-11.617l-4.021,2.902Z" style="fill:#e9b8b6;"/><path d="M35.106,85.144l8.451,2.563l-1.829,-8.715l-6.622,6.152Z" style="fill:#9d337d;"/><path d="M21.311,71.602l13.795,13.542l-3.205,-9.593l-10.59,-3.949Z" style="fill:#8a2f77;"/><path d="M21.702,82.744l-0.391,-11.142l13.795,13.542l-13.404,-2.4Z" style="fill:#8a2f77;"/><path d="M13.588,73.627l3.263,4.109l4.46,-6.134l-7.723,2.025Z" style="fill:#eabdba;"/><path d="M4.606,95.236l12.88,-2.519l-8.274,-6.848l-4.606,9.367Z" style="fill:#e5b6b3;"/><path d="M9.212,101.309l8.274,-8.592l-12.88,2.519l4.606,6.073Z" style="fill:#e5b6b3;"/><path d="M5.135,109.168l4.077,-7.859l-4.606,-6.073l0.529,13.932Z" style="fill:#dba097;"/><path d="M25.534,97.961l-16.322,3.348l8.274,-8.592l8.048,5.244Z" style="fill:#eabdba;"/><path d="M67.166,83.699l-12.013,9.678l1.136,-5.172l3.324,-7.289l7.553,2.783Z" style="fill:#d59a95;"/><path d="M77.173,90.313l-4.311,-10.276l-5.696,3.662l10.007,6.614Z" style="fill:#dfa39e;"/><path d="M55.153,93.377l12.878,-1.971l-0.865,-7.707l-12.013,9.678Z" style="fill:#d59a95;"/><path d="M63.641,100.717l4.39,-9.311l-12.878,1.971l8.488,7.34Z" style="fill:#dfa39e;"/><path d="M77.688,100.717l-9.657,-9.311l-4.39,9.311l14.047,0Z" style="fill:#dfa39e;"/><path d="M93.476,90.372l-16.303,-0.059l-4.314,-10.276l20.617,10.335Z" style="fill:#dfa39e;"/><path d="M96.757,100.017l-19.584,-9.704l16.303,0.059l3.281,9.645Z" style="fill:#dfa39e;"/><path d="M84.503,107.765l10.361,7.005l-2.058,-6.734l-8.303,-0.271Z" style="fill:#6f2a72;"/><path d="M70.318,105.217l14.185,2.548l-6.815,-7.048l-7.37,4.5Z" style="fill:#dfa39e;"/><path d="M63.641,100.717l6.677,4.5l7.37,-4.5l-14.047,0Z" style="fill:#dfa39e;"/><path d="M49.778,96.539l4.718,5.971l-0.041,-4.206l-4.677,-1.765Z" style="fill:#511770;"/><path d="M51.76,110.059l-19.027,-13.723l17.045,0.203l1.982,13.52Z" style="fill:#c7688e;"/><path d="M28.897,109.69l3.836,-13.354l-7.199,1.625l3.363,11.729Z" style="fill:#e9b8b6;"/><path d="M17.373,109.69l11.524,0l-3.363,-11.729l-8.161,11.729Z" style="fill:#dba097;"/><path d="M9.212,101.309l8.161,8.381l8.161,-11.729l-16.322,3.348Z" style="fill:#dba097;"/><path d="M12.207,110.69l5.166,-1l-8.161,-8.381l2.995,9.381Z" style="fill:#8a2f77;"/><path d="M5.135,109.168l7.072,1.522l-2.995,-9.381l-4.077,7.859Z" style="fill:#dba097;"/><path d="M7.582,112.369l4.625,-1.679l-7.072,-1.522l2.447,3.201Z" style="fill:#dba097;"/><path d="M10.806,118.926l1.401,-8.236l-4.625,1.679l3.224,6.557Z" style="fill:#dba097;"/><path d="M17.373,115.812l-5.166,-5.122l-1.447,8.236l6.613,-3.114Z" style="fill:#dba097;"/><path d="M17.373,109.69l0,6.122l-5.166,-5.122l5.166,-1Z" style="fill:#8a2f77;"/><path d="M23.135,109.69l-5.762,6.122l0,-6.122l5.762,0Z" style="fill:#c7688e;"/><path d="M26.83,115.812l2.067,-6.122l-5.762,0l3.695,6.122Z" style="fill:#c7688e;"/><path d="M51.76,110.059l-22.863,-0.369l3.836,-13.354l19.027,13.723Z" style="fill:#e9b8b6;"/><path d="M58.836,110.059l-4.34,-7.549l-2.736,7.549l7.076,0Z" style="fill:#c7688e;"/><path d="M65.183,120.117l7.027,-7.503l-6.081,2.398l-0.946,5.105Z" style="fill:#ecc9c8;"/><path d="M94.864,114.77l-14.963,4.694l4.602,-11.699l10.361,7.005Z" style="fill:#dba097;"/><path d="M122.841,126.918l-22.026,-6.64l21.58,0l0.446,6.64Z" style="fill:#6f2a72;"/><path d="M99.163,124.966l23.678,1.952l-22.026,-6.64l-1.652,4.688Z" style="fill:#6f2a72;"/><path d="M90.431,122.38l8.732,2.586l1.652,-4.688l-5.951,-5.508l-4.433,7.61Z" style="fill:#d1868d;"/><path d="M91.221,127.426l7.942,-2.46l-8.732,-2.586l0.79,5.046Z" style="fill:#d1868d;"/><path d="M77.329,123.598l13.102,-1.218l0.79,5.046l-13.892,-3.828Z" style="fill:#d1868d;"/><path d="M79.901,119.464l-14.718,0.653l12.146,3.481l13.102,-1.218l-10.53,-2.916Z" style="fill:#dba097;"/><path d="M51.76,110.059l14.369,4.953l-7.293,-4.953l-7.076,0Z" style="fill:#c7688e;"/><path d="M41.382,114.468l10.378,-4.409l14.369,4.953l-24.747,-0.544Z" style="fill:#e9b8b6;"/><path d="M28.897,109.69l12.485,4.778l10.378,-4.409l-22.863,-0.369Z" style="fill:#e9b8b6;"/><path d="M35.867,122.794l-6.97,-13.104l-2.067,6.122l9.037,6.982Z" style="fill:#b45891;"/><path d="M41.382,114.468l-5.515,8.326l-6.97,-13.104l12.485,4.778Z" style="fill:#c7688e;"/><path d="M26.83,115.812l-9.457,0l5.762,-6.122l3.695,6.122Z" style="fill:#c7688e;"/><path d="M17.373,115.812l18.494,6.982l-9.037,-6.982l-9.457,0Z" style="fill:#dba097;"/><path d="M10.806,118.926l6.567,-3.114l-2.377,8.985l-4.19,-5.871Z" style="fill:#c7688e;"/><path d="M20.002,123.86l-2.629,-8.048l-2.377,8.985l5.006,-0.937Z" style="fill:#c7688e;"/><path d="M31.397,127.74l-14.024,-11.928l2.629,8.048l11.395,3.88Z" style="fill:#d1868d;"/><path d="M29.334,120.305l2.063,7.435l-14.024,-11.928l11.961,4.493Z" style="fill:#dba097;"/><path d="M35.867,122.794l-4.47,4.946l-2.056,-7.41l6.526,2.464Z" style="fill:#dba097;"/><path d="M27.711,131.62l-7.709,-7.76l11.395,3.88l-3.686,3.88Z" style="fill:#c7688e;"/><path d="M49.841,134.775l-4.344,-9.226l-9.63,-2.755l-4.47,4.946l18.444,7.035Z" style="fill:#dba097;"/><path d="M44.363,140.166l-12.966,-12.426l-3.686,3.88l7.566,4.047l9.086,4.499Z" style="fill:#b45891;"/><path d="M49.841,134.775l-5.478,5.391l-12.966,-12.426l18.444,7.035Z" style="fill:#c7688e;"/><path d="M57.044,143.012l-7.203,-8.237l-5.478,5.391l12.681,2.846Z" style="fill:#c7688e;"/><path d="M41.382,114.5l4.115,11.049l-9.63,-2.755l5.515,-8.294Z" style="fill:#b45891;"/><path d="M65.183,120.025l-23.801,-5.525l24.747,0.512l-0.946,5.013Z" style="fill:#ecc9c8;"/><path d="M65.591,126.684l-24.209,-12.184l23.801,5.525l0.408,6.659Z" style="fill:#cf7a91;"/><path d="M45.497,125.549l20.094,1.135l-24.209,-12.184l4.115,11.049Z" style="fill:#8a2f77;"/><path d="M77.329,123.598l-11.738,3.086l-0.408,-6.659l12.146,3.573Z" style="fill:#cf7c7d;"/><path d="M83.434,136.32l7.787,-8.894l-13.892,-3.828l6.105,12.722Z" style="fill:#cf7c7d;"/><path d="M65.591,126.684l17.843,9.636l-6.105,-12.722l-11.738,3.086Z" style="fill:#b45891;"/><path d="M66.51,135.783l16.924,0.537l-17.843,-9.636l0.919,9.099Z" style="fill:#6d2870;"/><path d="M45.497,125.549l21.013,10.234l-0.919,-9.099l-20.094,-1.135Z" style="fill:#42216c;"/><path d="M49.841,134.775l16.669,1.008l-21.013,-10.234l4.344,9.226Z" style="fill:#c7688e;"/><path d="M57.044,143.012l9.466,-7.229l-16.669,-1.008l7.203,8.237Z" style="fill:#963f94;"/><path d="M79.921,144.095l-13.411,-8.312l-9.466,7.229l22.877,1.083Z" style="fill:#5b266b;"/><path d="M83.434,136.32l-3.513,7.775l-13.411,-8.312l16.924,0.537Z" style="fill:#6d2870;"/><path d="M87.556,140.306l-7.635,3.789l3.513,-7.775l4.122,3.986Z" style="fill:#8a2f77;"/><path d="M103.148,133.648l-15.592,6.658l-4.122,-3.986l19.714,-2.672Z" style="fill:#d07b7d;"/><path d="M91.221,127.426l11.927,6.222l-19.714,2.672l7.787,-8.894Z" style="fill:#d1868d;"/><path d="M97.042,125.623l6.106,8.025l-11.927,-6.222l5.821,-1.803Z" style="fill:#d1868d;"/><path d="M99.163,124.966l1.252,0.103l2.733,8.579l-6.106,-8.025l2.121,-0.657Z" style="fill:#d1868d;"/><path d="M95.921,143.012l7.227,-9.364l-15.592,6.658l8.365,2.706Z" style="fill:#d07b7d;"/><path d="M103.148,143.623l0.052,-9.975l-7.279,9.364l7.227,0.611Z" style="fill:#d07b7d;"/><path d="M122.841,126.918l-19.693,6.73l-2.728,-8.564l22.421,1.834Z" style="fill:#55226a;"/><path d="M71.704,7.031l-18.886,15.331l19.444,-9.992l-0.558,-5.339Z" style="fill:#ecc9c8;"/><path d="M52.818,16.934l6.709,-0.018l7.748,-6.29l-14.457,6.308Z" style="fill:#ecc9c8;"/><path d="M52.818,22.362l0,-5.428l6.687,0l-6.687,5.428Z" style="fill:#883685;"/><path d="M42.012,26.227l10.806,-9.293l0,5.428l-10.806,3.865Z" style="fill:#96317c;"/><path d="M41.528,22.911l0.484,3.316l8.049,-6.921l-8.533,3.605Z" style="fill:#eecbca;"/><path d="M35.297,30.107l6.231,-7.196l0.484,3.316l-6.715,3.88Z" style="fill:#eecbca;"/><path d="M28.976,31.423l6.321,-1.316l-5.151,7.87l-1.17,-6.554Z" style="fill:#96317c;"/><path d="M19.798,39.515l9.178,-8.092l1.17,6.554l-10.348,1.538Z" style="fill:#cf7a91;"/><path d="M15.402,58.123l4.396,-18.608l-9.562,16.143l5.166,2.465Z" style="fill:#da8fa4;"/><path d="M12.478,47.993l-2.242,7.665l9.562,-16.143l-7.32,8.478Z" style="fill:#cf7a91;"/><path d="M8.119,63.995l7.283,-5.872l-5.166,-2.465l-2.117,8.337Z" style="fill:#e5b6b4;"/><path d="M5.413,59.826l2.706,4.169l2.117,-8.337l-4.823,4.168Z" style="fill:#da8fa4;"/><path d="M3.702,65.411l1.711,-5.585l2.706,4.169l-4.417,1.416Z" style="fill:#da8fa4;"/><path d="M3.375,83.852l5.837,-9.529l-5.51,-8.912l-0.327,18.441Z" style="fill:#b65a77;"/><path d="M14.083,80.786l-10.708,3.066l5.837,-9.529l4.871,6.463Z" style="fill:#b65a77;"/><path d="M0,92.717l9.212,-6.848l-5.837,-2.017l-3.375,8.865Z" style="fill:#e5b6b3;"/><path d="M4.606,95.236l4.606,-9.367l-9.212,6.848l4.606,2.519Z" style="fill:#e5b6b3;"/><path d="M0.77,101.518l3.836,-6.282l-4.606,-2.519l0.77,8.801Z" style="fill:#dba097;"/><path d="M5.135,109.168l-0.529,-13.932l-3.836,6.282l4.365,7.65Z" style="fill:#d1868d;"/><path d="M3.375,111.528l1.76,-2.36l-2.183,-3.825l0.423,6.185Z" style="fill:#c7688e;"/><path d="M7.582,112.369l-4.207,-0.841l1.76,-2.36l2.447,3.201Z" style="fill:#c7688e;"/><path d="M7.236,121.103l0.346,-8.734l-4.207,-0.841l3.861,9.575Z" style="fill:#c7688e;"/><path d="M10.518,125.482l-3.282,-4.379l0.346,-8.734l3.224,6.652l-0.288,6.461Z" style="fill:#b45891;"/><path d="M14.996,124.797l-4.19,-5.871l-0.288,6.556l4.478,-0.685Z" style="fill:#b45891;"/><path d="M14.996,128.175l0,-3.378l-4.478,0.685l4.478,2.693Z" style="fill:#b45891;"/><path d="M20.002,123.86l-5.006,0.937l0,3.378l5.006,-4.315Z" style="fill:#b45891;"/><path d="M15.879,137.636l-0.883,-9.461l6.218,6.412l-5.335,3.049Z" style="fill:#a63a92;"/><path d="M27.711,131.62l-7.709,-7.76l-5.006,4.315l12.715,3.445Z" style="fill:#b45891;"/><path d="M21.214,134.587l6.497,-2.967l-12.715,-3.445l6.218,6.412Z" style="fill:#8a2f77;"/><path d="M24.727,138.22l7.076,-1.985l-10.589,-1.648l3.513,3.633Z" style="fill:#a63a92;"/><path d="M15.879,137.636l8.848,0.584l-3.513,-3.633l-5.335,3.049Z" style="fill:#8a2f77;"/><path d="M27.151,143.666l-2.424,-5.446l-8.848,-0.584l11.272,6.03Z" style="fill:#652680;"/><path d="M37.971,142.273l-6.188,-6.041l-7.056,1.988l13.244,4.053Z" style="fill:#a63a92;"/><path d="M27.151,143.666l10.82,-1.393l-13.244,-4.053l2.424,5.446Z" style="fill:#8a2f77;"/><path d="M44.96,150.846l-17.809,-7.18l10.82,-1.393l6.989,8.573Z" style="fill:#552867;"/><path d="M31.783,136.232l3.494,-0.565l-7.566,-4.047l-6.497,2.967l10.569,1.645Z" style="fill:#8a2f77;"/><path d="M37.971,142.273l-2.694,-6.606l-3.494,0.565l6.188,6.041Z" style="fill:#6d2870;"/><path d="M44.363,140.166l-6.392,2.107l-2.694,-6.606l9.086,4.499Z" style="fill:#8a2f77;"/><path d="M44.96,150.846l-0.597,-10.68l-6.392,2.107l6.989,8.573Z" style="fill:#6d2870;"/><path d="M57.044,143.012l-12.681,-2.846l0.597,10.68l12.084,-7.834Z" style="fill:#6d2870;"/><path d="M59.386,150.091l-7.814,-3.532l-6.612,4.287l14.426,-0.755Z" style="fill:#62267b;"/><path d="M59.386,152.979l0,-2.888l-14.426,0.755l14.426,2.133Z" style="fill:#a63a92;"/><path d="M72.795,150.091l-13.409,2.888l0,-2.888l13.409,0Z" style="fill:#a63a92;"/><path d="M57.044,143.012l2.342,7.079l-7.814,-3.532l5.472,-3.547Z" style="fill:#62267b;"/><path d="M72.795,150.091l-15.751,-7.079l2.342,7.079l13.409,0Z" style="fill:#62267b;"/><path d="M81.452,154.23l-8.657,-4.139l-13.409,2.888l22.066,1.251Z" style="fill:#a63a92;"/><path d="M86.689,148.703l-5.237,5.527l10.754,-2.069l-5.517,-3.458Z" style="fill:#8a2f77;"/><path d="M72.795,150.091l7.126,-1.388l1.531,5.527l-8.657,-4.139Z" style="fill:#7d2593;"/><path d="M86.689,148.703l-6.768,0l1.531,5.527l5.237,-5.527Z" style="fill:#7d2593;"/><path d="M87.556,140.306l4.65,11.855l-5.517,-3.458l-6.768,-4.608l7.635,-3.789Z" style="fill:#8a2f77;"/><path d="M79.921,148.703l0,-4.608l6.768,4.608l-6.768,0Z" style="fill:#7d2593;"/><path d="M72.795,150.091l7.126,-5.996l0,4.608l-7.126,1.388Z" style="fill:#7d2593;"/><path d="M57.044,143.012l22.877,1.083l-7.126,5.996l-15.751,-7.079Z" style="fill:#7d2593;"/><path d="M95.921,143.012l-3.715,9.149l-4.65,-11.855l8.365,2.706Z" style="fill:#d07b7d;"/><path d="M103.2,143.582l-7.279,-0.57l-3.715,9.149l10.994,-8.579Z" style="fill:#d07b7d;"/><path d="M72.262,12.37l-19.444,9.992l19.444,-4.914l0,-5.078Z" style="fill:#96317c;"/><path d="M90.99,6.241l-10.354,2.429l-4.265,-2.136l14.619,-0.293Z" style="fill:#eabdba;"/><path d="M96.428,3.286l-5.438,2.955l-14.619,0.293l20.057,-3.248Z" style="fill:#eabdba;"/><path d="M85.29,2.921l11.138,0.365l17.75,-3.286l-28.888,2.921Z" style="fill:#eecbca;"/><path d="M76.371,6.534l8.919,-3.613l11.138,0.365l-20.057,3.248Z" style="fill:#eabdba;"/><path d="M76.371,6.534l8.919,-3.613l-10.042,2.585l-3.544,1.525l4.667,-0.497Z" style="fill:#eecbca;"/><path d="M72.262,12.37l8.374,-3.7l-4.265,-2.136l-4.109,5.836Z" style="fill:#7e2a73;"/><path d="M71.704,7.031l0.558,5.339l4.187,-5.796l-4.745,0.457Z" style="fill:#7e2a73;"/><path d="M72.262,17.448l0,-5.078l13.478,4.257l-13.478,0.821Z" style="fill:#7e2a73;"/><path d="M80.636,8.67l-8.374,3.7l13.469,4.257l3.276,-4.784l-8.371,-3.173Z" style="fill:#883685;"/><path d="M92.631,19.254l-3.624,-7.411l-3.267,4.771l6.891,2.64Z" style="fill:#7e2a73;"/><path d="M80.636,8.67l8.371,3.173l1.961,-5.601l-10.332,2.428Z" style="fill:#8e4580;"/><path d="M109.8,5.34l-18.832,0.902l5.46,-2.956l13.372,2.054Z" style="fill:#e4c3c2;"/><path d="M114.178,2.6l-4.378,2.74l-13.372,-2.054l17.75,-0.686Z" style="fill:#c65b8a;"/><path d="M114.178,0l0,2.6l-17.75,0.686l17.75,-3.286Z" style="fill:#e4c3c2;"/><path d="M126.423,3.97l-12.245,-1.37l0,-2.6l12.245,3.97Z" style="fill:#e4c3c2;"/><path d="M137.05,1.985l-10.627,1.985l16.24,1.693l-5.613,-3.678Z" style="fill:#eccac9;"/><path d="M114.178,0l22.872,1.985l-10.627,1.985l-12.245,-3.97Z" style="fill:#d59a95;"/><g><path d="M127.458,10.497l-1.035,-6.527l-5.494,-0.615l6.529,7.142Z" style="fill:#63246c;"/><path d="M132.606,10.497l-6.183,-6.527l1.035,6.527l1.27,4.183l3.878,-4.183Z" style="fill:#952c79;"/><path d="M128.732,14.677l9.879,5.196l-6.005,-9.376l-3.874,4.18Z" style="fill:#892e77;"/><path d="M139.122,26.901l-0.511,-7.028l-9.879,-5.193l10.39,12.221Z" style="fill:#7b2c75;"/><path d="M139.122,26.901l9.101,-8.234l-9.612,1.206l0.511,7.028Z" style="fill:#641f73;"/><path d="M149.345,62.475l9.269,6.637l-5.628,-10.934l-3.641,4.297Z" style="fill:#7b386d;"/><path d="M152.298,76.076l-2.953,-13.601l9.269,6.637l-6.316,6.964Z" style="fill:#55226a;"/><path d="M164.571,78.149l-12.273,-2.073l6.316,-6.964l5.957,9.037Z" style="fill:#7e2b71;"/><path d="M169.91,71.356l-5.339,6.793l-5.957,-9.037l11.296,2.244Z" style="fill:#8d2e78;"/><path d="M175.977,78.855l-6.067,-7.499l-5.339,6.793l11.406,0.706Z" style="fill:#8d2e78;"/><path d="M179.067,72.295l-3.09,6.56l-6.067,-7.499l9.157,0.939Z" style="fill:#8d2e78;"/><path d="M183.038,75.251l-3.971,-2.956l-3.09,6.56l7.061,-3.604Z" style="fill:#9b2f7d;"/><path d="M184.689,69.112l-1.651,6.139l-3.971,-2.956l5.622,-3.183Z" style="fill:#c65b8a;"/><path d="M147.657,29.615l-8.535,-2.714l5.237,-4.738l3.298,7.452Z" style="fill:#922b79;"/><path d="M141.601,31.303l6.056,-1.688l-8.535,-2.714l2.479,4.402Z" style="fill:#9b2f7d;"/><path d="M151.801,39.454l-10.2,-8.151l6.056,-1.688l4.144,9.839Z" style="fill:#7e2a73;"/><path d="M144.359,38.559l7.442,0.895l-10.2,-8.151l2.758,7.256Z" style="fill:#882d76;"/><path d="M152.986,48.919l-8.627,-10.36l7.442,0.895l1.185,9.465Z" style="fill:#782b74;"/><path d="M148.196,54.896l4.79,-5.977l-8.627,-10.36l3.837,16.337Z" style="fill:#5c1f67;"/><path d="M152.986,58.178l0,-9.259l-4.79,5.977l4.79,3.282Z" style="fill:#682c6f;"/><path d="M149.345,62.475l-1.149,-7.579l4.79,3.282l-3.641,4.297Z" style="fill:#853973;"/><path d="M147.025,77.186l5.273,-1.11l-2.953,-13.601l-2.32,14.711Z" style="fill:#6e2770;"/><path d="M149.661,85.973l2.637,-9.897l-5.273,1.11l2.636,8.787Z" style="fill:#601b6f;"/><path d="M157.827,88.302l-5.529,-12.226l-2.637,9.897l8.166,2.329Z" style="fill:#772d70;"/><path d="M158.871,77.186l-1.044,11.116l-5.529,-12.226l6.573,1.11Z" style="fill:#6e2770;"/><path d="M149.124,96.81l6.817,6.828l1.886,-15.336l-8.703,8.508Z" style="fill:#350771;"/><path d="M149.661,85.973l-0.537,10.837l8.703,-8.508l-8.166,-2.329Z" style="fill:#52237b;"/></g><path d="M114.178,2.6l13.28,7.897l-6.529,-7.142l-6.751,-0.755Z" style="fill:#ecd4c3;"/><path d="M122.382,12.496l-8.204,-9.896l13.28,7.897l-5.076,1.999Z" style="fill:#ecd4c3;"/><path d="M128.728,14.68l-6.346,-2.184l5.076,-1.999l1.27,4.183Z" style="fill:#ecd4c3;"/><path d="M142.663,5.663l-10.057,4.834l-6.183,-6.527l16.24,1.693Z" style="fill:#ecd4c3;"/><path d="M152.932,13.945l-10.269,-8.282l-10.057,4.834l20.326,3.448Z" style="fill:#eccac9;"/><path d="M148.223,18.667l4.709,-4.722l-20.326,-3.448l15.617,8.17Z" style="fill:#ebccc1;"/><path d="M138.611,19.873l9.612,-1.206l-15.617,-8.17l6.005,9.376Z" style="fill:#cf7a91;"/><path d="M115.131,11.02l-0.953,-8.42l-4.378,2.74l5.331,5.68Z" style="fill:#7e2a73;"/><path d="M122.382,12.496l-7.251,-1.476l-0.953,-8.42l8.204,9.896Z" style="fill:#c65b8a;"/><path d="M152.932,13.945l11.31,9.523l-19.883,-1.305l3.864,-3.496l4.709,-4.722Z" style="fill:#ecd4c3;"/><path d="M147.657,29.615l16.585,-6.147l-19.883,-1.305l3.298,7.452Z" style="fill:#ecd4c3;"/><path d="M166.197,34.854l-18.54,-5.239l16.585,-6.147l1.955,11.386Z" style="fill:#eecbca;"/><path d="M151.801,39.454l14.396,-4.6l-18.54,-5.239l4.144,9.839Z" style="fill:#cf7a91;"/><path d="M164.242,43.459l-12.441,-4.005l14.396,-4.6l-1.955,8.605Z" style="fill:#c65b8a;"/><path d="M152.986,48.919l11.256,-5.46l-12.441,-4.005l1.185,9.465Z" style="fill:#96317c;"/><path d="M162.898,56.279l-9.912,-7.36l11.256,-5.46l-1.344,12.82Z" style="fill:#dda39b;"/><path d="M152.986,58.178l9.912,-1.899l-9.912,-7.36l0,9.259Z" style="fill:#96317c;"/><path d="M162.642,65.57l-9.656,-7.392l9.912,-1.899l-0.256,9.291Z" style="fill:#c65b8a;"/><path d="M158.614,69.112l4.028,-3.542l-9.656,-7.392l5.628,10.934Z" style="fill:#96317c;"/><path d="M169.91,71.356l14.779,-2.244l-5.622,3.183l-9.157,-0.939Z" style="fill:#c7688e;"/><path d="M185.252,60.582l-0.563,8.53l-14.779,2.244l15.342,-10.774Z" style="fill:#cf7a91;"/><path d="M162.642,65.57l-4.028,3.542l11.296,2.244l-7.268,-5.786Z" style="fill:#cf7a91;"/><path d="M178.704,65.18l-16.062,0.39l7.268,5.786l8.794,-6.176Z" style="fill:#db9f9a;"/><path d="M181.629,44.168l-2.925,21.012l6.548,-4.598l-3.623,-16.414Z" style="fill:#eabdba;"/><path d="M162.898,56.279l15.806,8.901l-16.062,0.39l0.256,-9.291Z" style="fill:#db9f9a;"/><path d="M181.629,44.168l-18.731,12.111l15.806,8.901l2.925,-21.012Z" style="fill:#ecc9c8;"/><path d="M173.643,49.331l-9.401,-5.872l-1.344,12.82l10.745,-6.948Z" style="fill:#dda39b;"/><path d="M173.643,40.815l-9.401,2.644l9.401,5.872l0,-8.516Z" style="fill:#dda39b;"/><path d="M181.629,44.168l-7.986,-3.353l0,8.516l7.986,-5.163Z" style="fill:#ecd4c3;"/><path d="M166.197,34.854l7.446,5.961l-9.401,2.644l1.955,-8.605Z" style="fill:#dda39b;"/><path d="M173.643,33.088l7.986,11.08l-7.986,-3.353l0,-7.727Z" style="fill:#cf7a91;"/><path d="M166.197,34.854l7.446,-1.766l-9.401,-9.62l1.955,11.386Z" style="fill:#96317c;"/><path d="M173.643,40.815l-7.446,-5.961l7.446,-1.766l0,7.727Z" style="fill:#cf7a91;"/><path d="M164.571,78.149l-6.744,10.153l1.044,-11.116l5.7,0.963Z" style="fill:#cf7a91;"/><path d="M179.024,88.302l-14.453,-10.153l-6.744,10.153l21.197,0Z" style="fill:#ecc9c8;"/><path d="M175.977,78.855l3.047,9.447l-14.453,-10.153l11.406,0.706Z" style="fill:#cf7a91;"/><path d="M189.932,82.744l-10.908,5.558l-3.047,-9.447l13.955,3.889Z" style="fill:#cf7a91;"/><path d="M183.038,75.251l6.894,7.493l-13.955,-3.889l7.061,-3.604Z" style="fill:#cf7a91;"/><path d="M192.757,72.74l-2.825,10.004l-6.894,-7.493l9.719,-2.511Z" style="fill:#c65b8a;"/><path d="M184.689,69.112l8.068,3.628l-9.719,2.511l1.651,-6.139Z" style="fill:#692671;"/><path d="M199.565,61.522l-14.876,7.59l0.563,-8.53l14.313,0.94Z" style="fill:#d99c9b;"/><path d="M183.545,52.852l16.02,8.67l-14.313,-0.94l-1.707,-7.73Z" style="fill:#eabdba;"/><path d="M191.555,49.615l8.01,11.907l-16.02,-8.67l8.01,-3.237Z" style="fill:#cf7a91;"/><path d="M181.629,44.168l9.926,5.447l-8.01,3.237l-1.916,-8.684Z" style="fill:#641f73;"/><path d="M187.501,40.227l4.054,9.388l-9.926,-5.447l5.872,-3.941Z" style="fill:#641f73;"/><path d="M173.643,33.088l13.858,7.139l-5.872,3.941l-7.986,-11.08Z" style="fill:#883685;"/><path d="M178.092,28.707l9.409,11.52l-12.526,-10.111l3.117,-1.409Z" style="fill:#dfa39e;"/><path d="M173.643,33.088l1.332,-2.972l12.526,10.111l-13.858,-7.139Z" style="fill:#cf7a91;"/><path d="M164.242,23.468l10.733,6.648l-1.332,2.972l-9.401,-9.62Z" style="fill:#cf7a91;"/><path d="M178.092,28.707l-3.117,1.409l-10.733,-6.648l13.85,5.239Z" style="fill:#dfa39e;"/><path d="M172.04,26.418l-16.293,-10.103l8.495,7.153l7.798,2.95Z" style="fill:#cf7a91;"/><path d="M153.576,10.394l2.171,5.921l16.293,10.103l-18.464,-16.024Z" style="fill:#eabdba;"/><path d="M150.892,12.299l2.684,-1.905l2.171,5.921l-4.855,-4.016Z" style="fill:#cf7a91;"/><path d="M142.663,5.663l10.913,4.731l-2.684,1.905l-8.229,-6.636Z" style="fill:#eabdba;"/><path d="M199.565,61.522l-6.449,-13.891l-5.615,-7.404l4.054,9.388l8.01,11.907Z" style="fill:#d4dae4;fill-opacity:0.1;"/><path d="M198.356,75.159l3.895,-4.797l-2.686,-8.84l-1.209,13.637Z" style="fill:#7e2b71;"/><path d="M192.757,72.74l5.599,2.511l1.209,-13.729l-14.876,7.59l8.068,3.628Z" style="fill:#682c6f;"/><path d="M189.932,82.744l8.424,-7.493l-5.599,-2.511l-2.825,10.004Z" style="fill:#c65b8a;"/><path d="M201.803,83.189l-3.447,-7.938l-8.424,7.493l11.871,0.445Z" style="fill:#c65b8a;"/><path d="M202.251,70.362l2.042,6.934l-2.49,5.893l-3.447,-7.938l3.895,-4.889Z" style="fill:#96317c;"/><path d="M204.797,86.257l-2.994,-3.068l2.49,-5.893l0.504,8.961Z" style="fill:#cf7a91;"/><path d="M199.418,92.983l5.379,-6.726l-2.994,-3.068l-2.385,9.794Z" style="fill:#cf7a91;"/><path d="M189.772,93.361l9.646,-0.378l2.385,-9.794l-11.871,-0.445l-0.16,10.617Z" style="fill:#cf7a91;"/><path d="M179.024,88.302l10.748,5.059l0.16,-10.617l-10.908,5.558Z" style="fill:#db9f9a;"/><path d="M179.024,100.062l10.748,-6.701l-10.748,-5.059l0,11.76Z" style="fill:#db9f9a;"/><path d="M164.236,95.552l14.788,4.51l0,-11.76l-14.788,7.25Z" style="fill:#eabdba;"/><path d="M157.827,88.302l6.409,7.25l14.788,-7.25l-21.197,0Z" style="fill:#ecc9c8;"/><path d="M155.941,103.638l8.295,-8.086l-6.409,-7.25l-1.886,15.336Z" style="fill:#692671;"/><path d="M147.025,77.186l-1.232,10.355l3.331,9.269l0.537,-10.837l-2.636,-8.787Z" style="fill:#c66b7b;"/><path d="M141.573,79.013l4.22,8.528l1.232,-10.355l-5.452,1.827Z" style="fill:#d99c9b;"/><path d="M132.623,81.403l8.95,-2.39l4.22,8.528l-13.17,-6.138Z" style="fill:#d99c9b;"/><path d="M130.774,92.135l1.849,-10.732l13.17,6.138l-15.019,4.594Z" style="fill:#dcaeab;"/><path d="M123.699,98.192l7.075,-6.057l18.35,4.675l-25.425,1.382Z" style="fill:#d68983;"/><path d="M145.793,87.541l-15.019,4.594l18.35,4.675l-3.331,-9.269Z" style="fill:#d89885;"/><path d="M126.737,102.51l-3.038,-4.318l25.425,-1.382l-4.447,4.348l-17.94,1.352Z" style="fill:#91307a;"/><path d="M155.941,103.638l-11.264,-2.48l4.447,-4.348l6.817,6.828Z" style="fill:#5b2573;"/><path d="M147.073,105.324l8.868,-1.686l-11.264,-2.48l2.396,4.166Z" style="fill:#6d2870;"/><path d="M128.26,107.765l18.813,-2.441l-2.396,-4.166l-17.94,1.352l1.523,5.255Z" style="fill:#da909b;"/><path d="M121.794,100.646l4.943,1.864l-3.038,-4.318l-1.905,2.454Z" style="fill:#5b2068;"/><path d="M114.615,103.241l7.179,-2.595l4.943,1.864l-12.122,0.731Z" style="fill:#dd9889;"/><path d="M128.26,107.765l-13.645,-4.524l12.122,-0.731l1.523,5.255Z" style="fill:#dba195;"/><path d="M111.311,89.96l3.304,13.281l7.179,-2.595l-10.483,-10.686Z" style="fill:#dfa39e;"/><path d="M123.699,98.192l-12.388,-8.232l10.483,10.686l1.905,-2.454Z" style="fill:#98337a;"/><path d="M130.774,92.135l-19.463,-2.175l12.388,8.232l7.075,-6.057Z" style="fill:#c6737c;"/><path d="M101.386,80.35l29.388,11.785l-19.463,-2.175l-9.925,-9.61Z" style="fill:#d1868d;"/><path d="M119.994,77.465l-18.608,2.885l29.388,11.785l-10.78,-14.67Z" style="fill:#dfa39e;"/><path d="M132.623,81.403l-12.629,-3.938l10.78,14.67l1.849,-10.732Z" style="fill:#dfa39e;"/><path d="M128.274,76.533l-8.28,0.932l12.629,3.938l-4.349,-4.87Z" style="fill:#c66b7b;"/><path d="M119.994,71.004l8.28,5.529l-8.28,0.932l0,-6.461Z" style="fill:#da909b;"/><path d="M110.644,72.495l9.35,-1.491l0,6.461l-9.35,-4.97Z" style="fill:#da909b;"/><path d="M101.386,80.35l9.258,-7.855l9.35,4.97l-18.608,2.885Z" style="fill:#dfa39e;"/><path d="M97.505,77.023l13.139,-4.528l-9.258,7.855l-3.881,-3.327Z" style="fill:#dfa39e;"/><path d="M94.187,80.037l3.318,-3.014l3.881,3.327l-7.199,-0.313Z" style="fill:#d1868d;"/><path d="M80.144,75.107l14.043,4.93l3.318,-3.014l-17.361,-1.916Z" style="fill:#823970;"/><path d="M107.699,66.22l-20.226,1.206l10.032,9.597l10.194,-10.803Z" style="fill:#8d2e78;"/><path d="M119.994,71.004l-12.295,-4.784l2.945,6.275l9.35,-1.491Z" style="fill:#cc6e80;"/><path d="M109.283,53.01l10.711,17.994l-3.943,-18.246l-6.768,0.252Z" style="fill:#cf7a91;"/><path d="M107.699,66.22l6.939,-4.213l5.356,8.997l-12.295,-4.784Z" style="fill:#d7839a;"/><path d="M97.887,53.365l9.812,12.855l6.939,-4.213l-16.751,-8.642Z" style="fill:#e3b6aa;"/><path d="M74.485,60.723l12.988,6.703l20.226,-1.206l-9.812,-12.855l-23.402,7.358Z" style="fill:#e3b6aa;"/><path d="M89.269,49.2l-14.784,11.523l23.402,-7.358l-8.618,-4.165Z" style="fill:#eecbca;"/><path d="M114.638,62.007l-16.751,-8.642l11.405,-0.338l5.346,8.98Z" style="fill:#eecbca;"/><path d="M89.269,49.2l8.618,4.165l18.164,-0.607l-26.782,-3.558Z" style="fill:#ecd4c3;"/><path d="M94.838,46.34l21.213,6.418l-26.782,-3.558l5.569,-2.86Z" style="fill:#ecd4c3;"/><path d="M115.22,46.34l-20.382,0l21.213,6.418l-0.831,-6.418Z" style="fill:#96317c;"/><path d="M122.542,46.34l-7.322,0l0.831,6.418l6.491,-6.418Z" style="fill:#cf7a91;"/><path d="M131.349,51.282l-8.807,-4.942l-6.491,6.418l15.298,-1.476Z" style="fill:#e3b6aa;"/><path d="M117.069,57.468l14.28,-6.186l-15.298,1.476l1.018,4.71Z" style="fill:#e3b6aa;"/><path d="M130.797,64.394l-10.803,6.61l-2.925,-13.536l13.728,6.926Z" style="fill:#96317c;"/><path d="M131.349,51.282l-0.552,13.112l-13.728,-6.926l14.28,-6.186Z" style="fill:#e3b6aa;"/><path d="M128.274,76.533l2.523,-12.139l-10.803,6.61l8.28,5.529Z" style="fill:#7e2b71;"/><path d="M141.532,79.024l-13.258,-2.491l4.349,4.87l8.909,-2.379Z" style="fill:#d38e83;"/><path d="M130.797,64.394l-2.523,12.139l13.282,2.435l-10.759,-14.574Z" style="fill:#7e2b71;"/><path d="M144.841,71.585l-3.309,7.439l5.493,-1.838l-2.184,-5.601Z" style="fill:#c65b8a;"/><path d="M148.196,54.896l-3.355,16.689l2.184,5.601l2.32,-14.711l-1.149,-7.579Z" style="fill:#c7688e;"/><path d="M130.797,64.394l10.735,14.63l3.309,-7.439l-14.044,-7.191Z" style="fill:#c5628e;"/><path d="M131.349,51.282l13.492,20.303l-14.044,-7.191l0.552,-13.112Z" style="fill:#e3b6aa;"/><path d="M139.604,45.083l5.237,26.502l-13.492,-20.303l8.255,-6.199Z" style="fill:#e3b6aa;"/><path d="M148.196,54.896l-8.592,-9.813l5.237,26.502l3.355,-16.689Z" style="fill:#d68983;"/><path d="M144.359,38.559l-4.755,6.524l8.592,9.813l-3.837,-16.337Z" style="fill:#c66a8b;"/><path d="M141.601,31.303l-1.997,13.78l4.755,-6.524l-2.758,-7.256Z" style="fill:#d99c9b;"/><path d="M134.5,37.505l5.104,7.578l1.997,-13.78l-7.101,6.202Z" style="fill:#d99c9b;"/><path d="M122.542,46.34l8.807,4.942l8.255,-6.199l-17.062,1.257Z" style="fill:#e3b6aa;"/><path d="M134.5,37.505l-11.958,8.835l17.062,-1.257l-5.104,-7.578Z" style="fill:#e3b6aa;"/><path d="M128.997,31.303l5.503,6.202l7.101,-6.202l-12.604,0Z" style="fill:#dda39b;"/><path d="M139.122,26.901l-10.125,4.402l12.604,0l-2.479,-4.402Z" style="fill:#dda39b;"/><path d="M114.948,38.193l14.049,-6.89l5.503,6.202l-19.552,0.688Z" style="fill:#eecbca;"/><path d="M122.542,46.34l-7.594,-8.147l19.552,-0.688l-11.958,8.835Z" style="fill:#e3b6aa;"/><path d="M115.22,46.34l-0.272,-8.147l7.594,8.147l-7.322,0Z" style="fill:#cf7a91;"/><path d="M97.791,39.938l17.157,-1.745l0.272,8.147l-20.382,0l2.953,-6.402Z" style="fill:#c7688e;"/><path d="M100.091,30.487l-2.3,9.451l17.429,-11.723l-15.129,2.272Z" style="fill:#ecd4c3;"/><path d="M114.948,38.193l0.272,-9.978l-17.429,11.723l17.157,-1.745Z" style="fill:#ecc9c8;"/><path d="M120.852,26.65l-5.632,1.565l-0.272,9.978l5.904,-11.543Z" style="fill:#ecc9c8;"/><path d="M128.997,31.303l-8.145,-4.653l-5.904,11.543l14.049,-6.89Z" style="fill:#eecbca;"/><path d="M133.784,29.222l-12.932,-2.572l8.145,4.653l4.787,-2.081Z" style="fill:#cf7a91;"/><path d="M132,18.524l1.784,10.698l5.338,-2.321l-7.122,-8.377Z" style="fill:#eccac9;"/><path d="M117.9,17.164l14.1,1.36l1.784,10.698l-15.884,-12.058Z" style="fill:#eccac9;"/><path d="M120.852,26.65l12.932,2.572l-15.884,-12.058l2.952,9.486Z" style="fill:#db9f9a;"/><path d="M120.852,26.65l-2.952,-9.486l-2.68,11.051l5.632,-1.565Z" style="fill:#cf7a91;"/><path d="M128.732,14.68l-10.832,2.484l14.1,1.36l-3.268,-3.844Z" style="fill:#ebccc1;"/><path d="M107.226,23.622l7.994,4.593l2.68,-11.051l-10.674,6.458Z" style="fill:#ecd4c3;"/><path d="M107.493,16.013l-0.267,7.609l10.674,-6.458l-10.407,-1.151Z" style="fill:#ecd4c3;"/><path d="M98.237,14.274l9.256,1.739l-0.267,7.609l-7.589,0l-1.4,-9.348Z" style="fill:#cf7a91;"/><path d="M89.007,11.843l10.63,11.779l-1.4,-9.348l-9.23,-2.431Z" style="fill:#c65b8a;"/><path d="M92.631,19.254l7.46,11.233l-14.36,-13.86l6.9,2.627Z" style="fill:#96317c;"/><path d="M99.578,23.557l0.513,6.93l-7.46,-11.233l-3.624,-7.411l10.571,11.714Z" style="fill:#96317c;"/><path d="M107.226,23.622l7.994,4.593l-15.129,2.272l7.135,-6.865Z" style="fill:#ecd4c3;"/><path d="M99.583,23.622l7.643,0l-7.135,6.865l-0.508,-6.865Z" style="fill:#96317c;"/><path d="M115.22,11.038l2.68,6.126l10.832,-2.484l-6.35,-2.184l-7.162,-1.458Z" style="fill:#ebccc1;"/><path d="M107.493,16.013l-9.256,-1.739l16.983,-3.236l2.68,6.126l-10.407,-1.151Z" style="fill:#ebccc1;"/><path d="M90.968,6.242l7.269,8.032l-9.23,-2.431l1.961,-5.601Z" style="fill:#c65b8a;"/><path d="M109.8,5.34l-11.563,8.934l-7.269,-8.032l18.832,-0.902Z" style="fill:#ecd4c3;"/><path d="M115.131,11.02l-16.894,3.254l11.563,-8.934l5.331,5.68Z" style="fill:#ecd4c3;"/></g><g><path d="M122.841,126.918l2.017,8.802l6.331,-1.477l-8.348,-7.325Z" style="fill:#6d2870;"/><path d="M108.598,131.785l16.26,3.935l-2.017,-8.802l-14.243,4.867Z" style="fill:#692671;"/><path d="M133.966,137.891l-9.108,-2.171l6.331,-1.477l2.777,3.648Z" style="fill:#762c6f;"/><path d="M124.858,138.501l9.108,-0.61l-9.108,-2.171l0,2.781Z" style="fill:#42216c;"/><path d="M117.759,134.002l7.099,4.499l0,-2.781l-7.099,-1.718Z" style="fill:#762c6f;"/><path d="M103.148,133.648l14.611,0.354l-9.161,-2.217l-5.45,1.863Z" style="fill:#55226a;"/><path d="M103.2,141.533l14.559,-7.531l-14.559,-0.372l0,7.903Z" style="fill:#42216c;"/><path d="M124.858,138.501l-6.286,1.145l-0.813,-5.644l7.099,4.499Z" style="fill:#42216c;"/><path d="M103.2,141.533l15.372,-1.887l-0.813,-5.644l-14.559,7.531Z" style="fill:#42216c;"/><path d="M91.538,37.532l-2.269,11.668l5.569,-2.86l-3.3,-8.808Z" style="fill:#823970;"/><path d="M97.791,39.938l-6.253,-2.406l3.3,8.808l2.953,-6.402Z" style="fill:#823970;"/><path d="M91.538,22.232l0,15.3l6.253,2.406l2.3,-9.451l-8.553,-8.255Z" style="fill:#93557b;"/><path d="M86.881,31.919l4.657,5.613l0,-15.3l-4.657,9.687Z" style="fill:#ecd4c3;"/><path d="M77.389,23.557l8.342,-6.93l5.807,5.605l-14.149,1.325Z" style="fill:#eecbca;"/><path d="M77.389,29.015l14.149,-6.783l-14.149,1.325l0,5.458Z" style="fill:#ecc9c8;"/><path d="M86.881,31.919l-9.492,-2.904l14.149,-6.783l-4.657,9.687Z" style="fill:#ecd4c3;"/><path d="M82.653,44.829l8.885,-7.297l-4.657,-5.613l-4.228,12.91Z" style="fill:#ecd4c3;"/><path d="M89.269,49.2l-6.616,-4.371l8.885,-7.297l-2.269,11.668Z" style="fill:#ecd4c3;"/><path d="M74.485,60.723l8.168,-15.894l6.616,4.371l-14.784,11.523Z" style="fill:#ecd4c3;"/><path d="M82.653,30.625l0,14.204l4.228,-12.91l-4.228,-1.294Z" style="fill:#ecd4c3;"/><path d="M77.389,29.015l-1.486,9.359l6.75,-7.749l-5.264,-1.61Z" style="fill:#eecbca;"/><path d="M82.653,44.829l-6.75,-6.455l6.75,-7.749l0,14.204Z" style="fill:#ecd4c3;"/><path d="M77.389,29.015l-11.394,1.61l9.908,7.749l1.486,-9.359Z" style="fill:#eecbca;"/><path d="M65.002,27.611l0.993,3.014l11.394,-1.61l-12.387,-1.404Z" style="fill:#eecbca;"/><path d="M70.378,22.388l-5.376,5.223l12.387,1.404l0,-5.458l-7.011,-1.169Z" style="fill:#eecbca;"/><path d="M85.731,16.627l-15.353,5.761l7.011,1.169l8.342,-6.93Z" style="fill:#ecc9c8;"/><path d="M72.262,17.448l-1.884,4.94l15.353,-5.761l-13.469,0.821Z" style="fill:#eecbca;"/><path d="M61.318,20.214l-2.427,4.923l11.558,-2.775l1.813,-4.914l-10.944,2.766Z" style="fill:#eecbca;"/><path d="M65.002,27.611l-6.111,-2.474l11.558,-2.775l-5.447,5.249Z" style="fill:#d7839a;"/><path d="M56.78,33.19l8.222,-5.579l-6.111,-2.474l-2.111,8.053Z" style="fill:#d7839a;"/><path d="M52.818,22.362l8.474,-2.142l-2.401,4.917l-6.073,-2.775Z" style="fill:#ecc9c8;"/><path d="M43.756,37.438l15.135,-12.301l-6.073,-2.775l-9.062,15.076Z" style="fill:#ecc9c8;"/><path d="M42.012,26.227l1.744,11.211l9.062,-15.076l-10.806,3.865Z" style="fill:#ecc9c8;"/><path d="M58.891,25.137l-2.111,8.053l-13.024,4.248l15.135,-12.301Z" style="fill:#db90a4;"/><path d="M65.995,30.625l-9.215,2.565l8.222,-5.579l0.993,3.014Z" style="fill:#e9b8b6;"/><path d="M63.138,40.22l2.857,-9.595l9.893,7.738l-12.75,1.857Z" style="fill:#eecbca;"/><path d="M69.513,45.32l6.375,-6.957l-12.75,1.857l6.375,5.1Z" style="fill:#cf7a91;"/><path d="M82.653,44.829l-6.843,-6.455l-6.297,6.946l13.14,-0.491Z" style="fill:#ecd4c3;"/><path d="M61.909,53.03l20.744,-8.201l-13.14,0.491l-7.604,7.71Z" style="fill:#ecd4c3;"/><path d="M74.485,60.723l8.168,-15.894l-20.744,8.201l12.576,7.693Z" style="fill:#ecd4c3;"/><path d="M60.703,60.723l13.782,0l-12.576,-7.693l-1.206,7.693Z" style="fill:#eecbca;"/><path d="M61.909,70.219l12.576,-9.496l-13.782,0l1.206,9.496Z" style="fill:#e3b6aa;"/><path d="M73.871,73.235l0.614,-12.512l-12.576,9.496l11.962,3.016Z" style="fill:#e3b6aa;"/><path d="M87.473,67.426l-13.602,5.809l0.614,-12.512l12.988,6.703Z" style="fill:#e3b6aa;"/><path d="M80.144,75.107l-6.273,-1.872l13.602,-5.809l-7.329,7.681Z" style="fill:#8d2e78;"/><path d="M199.418,92.983l-3.63,5.18l7.916,-4.802l1.093,-7.104l-5.379,6.726Z" style="fill:#b65a77;"/><path d="M189.772,93.361l6.016,4.802l3.63,-5.18l-9.646,0.378Z" style="fill:#c6678d;"/><path d="M185.312,103.066l10.476,-4.903l-6.016,-4.802l-4.46,9.705Z" style="fill:#c6678d;"/><path d="M179.024,100.062l6.288,3.004l4.46,-9.705l-10.748,6.701Z" style="fill:#d1868d;"/><path d="M170.901,110.534l8.123,-10.472l6.288,3.004l-14.411,7.468Z" style="fill:#d1868d;"/><path d="M159.609,100.062l19.415,0l-8.123,10.472l-11.292,-10.472Z" style="fill:#b65a77;"/><path d="M164.236,95.552l-4.627,4.51l19.415,0l-14.788,-4.51Z" style="fill:#6d2870;"/><path d="M155.941,103.638l14.96,6.896l-11.292,-10.472l-3.668,3.576Z" style="fill:#d1868d;"/><path d="M185.312,103.066l-3.927,8.076l-10.484,-0.608l14.411,-7.468Z" style="fill:#d1868d;"/><path d="M200.091,95.552l-6.417,9.746l-8.362,-2.232l10.476,-4.903l4.303,-2.611Z" style="fill:#8c2f78;"/><path d="M188.196,107.52l5.478,-2.222l-8.362,-2.232l2.884,4.454Z" style="fill:#963f94;"/><path d="M181.385,111.142l6.811,-3.622l-2.884,-4.454l-3.927,8.076Z" style="fill:#963f94;"/><path d="M158.784,111.926l12.117,-1.392l-14.96,-6.896l2.843,8.288Z" style="fill:#d1868d;"/><path d="M152.1,125.446l18.801,-14.912l-12.117,1.392l-6.684,13.52Z" style="fill:#8a3a71;"/><path d="M164.653,124.296l-12.553,1.15l18.801,-14.912l-6.248,13.762Z" style="fill:#b65a77;"/><path d="M181.385,111.142l-13.32,5.638l2.836,-6.246l10.484,0.608Z" style="fill:#d1868d;"/><path d="M180.495,116.78l-12.43,0l13.32,-5.638l-0.89,5.638Z" style="fill:#d1868d;"/><path d="M188.196,107.52l-7.701,9.26l0.89,-5.638l6.811,-3.622Z" style="fill:#c7688e;"/><path d="M191.896,106.02l0.601,7.637l-4.301,-6.137l3.7,-1.5Z" style="fill:#b45891;"/><path d="M185.838,110.356l6.659,3.301l-4.301,-6.137l-2.358,2.836Z" style="fill:#dba097;"/><path d="M187.002,123.451l5.495,-9.794l-6.659,-3.301l1.164,13.095Z" style="fill:#dba097;"/><path d="M180.495,116.78l0,4.913l6.507,1.758l-1.164,-13.095l-5.343,6.424Z" style="fill:#dba097;"/><path d="M168.065,116.78l-3.412,7.516l15.842,-2.603l0,-4.913l-12.43,0Z" style="fill:#dba097;"/><path d="M168.739,129.303l-4.086,-5.007l7.921,-1.302l-3.835,6.309Z" style="fill:#c7688e;"/><path d="M180.072,127.529l-11.333,1.774l3.835,-6.309l7.498,4.535Z" style="fill:#c7688e;"/><path d="M180.495,121.693l-0.423,5.836l-7.498,-4.535l7.921,-1.301Z" style="fill:#c7688e;"/><path d="M187.002,123.451l-6.93,4.078l0.423,-5.836l6.507,1.758Z" style="fill:#dba097;"/><path d="M182.179,133.204l-2.107,-5.675l6.93,-4.078l-4.823,9.753Z" style="fill:#dba097;"/><path d="M168.739,129.303l13.44,3.901l-2.107,-5.675l-11.333,1.774Z" style="fill:#b45891;"/><path d="M176.05,139.708l6.129,-6.504l-13.44,-3.901l7.311,10.405Z" style="fill:#b45891;"/><path d="M166.477,141.097l9.573,-1.389l-7.311,-10.405l-2.262,11.794Z" style="fill:#8a3a71;"/><path d="M157.242,132.66l11.497,-3.357l-4.086,-5.007l-12.553,1.15l5.142,7.214Z" style="fill:#8a3a71;"/><path d="M166.477,141.097l-9.235,-8.437l11.497,-3.357l-2.262,11.794Z" style="fill:#b65a77;"/><path d="M161.076,146.383l-3.834,-13.723l9.235,8.437l-5.401,5.286Z" style="fill:#8a3a71;"/><path d="M144.883,133.86l16.193,12.523l-3.834,-13.723l-12.359,1.2Z" style="fill:#762c6f;"/><path d="M140.188,146.068l4.695,-12.208l16.193,12.523l-20.888,-0.315Z" style="fill:#5b266b;"/><path d="M152.1,125.446l-7.217,8.414l12.359,-1.2l-5.142,-7.214Z" style="fill:#8a3a71;"/><path d="M142.378,126.119l2.505,7.741l7.217,-8.414l-9.722,0.673Z" style="fill:#762c6f;"/><path d="M131.189,134.243l13.694,-0.383l-4.695,12.208l-8.999,-11.825Z" style="fill:#5b266b;"/><path d="M133.184,129.653l-1.995,4.59l13.694,-0.383l-11.699,-4.207Z" style="fill:#963f94;"/><path d="M142.388,126.118l-9.204,3.535l11.699,4.207l-2.495,-7.742Z" style="fill:#762c6f;"/><path d="M152.1,125.446l-7.217,-7.933l-2.495,8.605l9.712,-0.672Z" style="fill:#55226a;"/><path d="M158.784,111.926l-13.901,5.587l7.217,7.933l6.684,-13.52Z" style="fill:#5b266b;"/><path d="M155.941,103.638l-11.058,13.875l13.901,-5.587l-2.843,-8.288Z" style="fill:#6d2870;"/><path d="M147.073,105.324l-2.19,12.189l11.058,-13.875l-8.868,1.686Z" style="fill:#5b266b;"/><path d="M133.066,112.956l14.007,-7.632l-2.19,12.189l-11.817,-4.557Z" style="fill:#e5b6b3;"/><path d="M136.415,123.415l-3.349,-10.459l11.817,4.557l-8.468,5.902Z" style="fill:#dba097;"/><path d="M142.388,126.118l-5.973,-2.703l8.468,-5.902l-2.495,8.605Z" style="fill:#dba097;"/><path d="M133.184,129.653l3.231,-6.238l5.973,2.703l-9.204,3.535Z" style="fill:#c6678d;"/><path d="M122.841,126.918l8.348,7.325l1.995,-4.59l-10.343,-2.735Z" style="fill:#963f94;"/><path d="M122.395,120.278l10.789,9.375l3.231,-6.238l-14.02,-3.137Z" style="fill:#c7688e;"/><path d="M122.841,126.918l10.343,2.735l-10.789,-9.375l0.446,6.64Z" style="fill:#8a2f77;"/><path d="M133.184,112.956l-4.924,-5.191l18.813,-2.441l-13.889,7.632Z" style="fill:#e5b6b3;"/><g><path d="M136.415,123.415l-3.349,-10.459l-10.671,7.322l14.02,3.137Z" style="fill:#752c71;"/><path d="M112.407,111.977l9.988,8.301l10.671,-7.322l-25.386,-5.712l4.727,4.733Z" style="fill:#813871;"/><path d="M128.26,107.765l-20.58,-0.521l25.386,5.712l-4.806,-5.191Z" style="fill:#b65a77;"/><path d="M114.615,103.241l-6.935,4.003l20.58,0.521l-13.645,-4.524Z" style="fill:#ba5b81;"/><path d="M56.289,88.205l3.324,-7.289l-8.921,3.327l5.597,3.962Z" style="fill:#d1868d;"/><path d="M16.851,77.736l4.851,5.008l-0.391,-11.142l-4.46,6.134Z" style="fill:#9c4694;"/><path d="M22.601,85.573l-0.899,-2.829l-7.619,-1.958l8.518,4.787Z" style="fill:#782490;"/><path d="M16.851,77.736l-2.768,3.05l7.619,1.958l-4.851,-5.008Z" style="fill:#7d2593;"/><path d="M9.212,74.323l4.871,6.463l2.768,-3.05l-3.263,-4.109l-4.376,0.696Z" style="fill:#913185;"/><path d="M9.212,85.869l13.389,-0.296l-8.518,-4.787l-10.708,3.066l5.837,2.017Z" style="fill:#c7688e;"/><path d="M25.534,88.964l-2.933,-3.391l-13.389,0.296l8.274,6.848l8.048,-3.753Z" style="fill:#cf7a91;"/><path d="M25.534,97.961l-8.048,-5.244l27.128,0.938l-19.08,4.306Z" style="fill:#963f94;"/><path d="M25.534,88.964l8.009,4.308l-16.057,-0.555l8.048,-3.753Z" style="fill:#cf7a91;"/><path d="M22.601,85.573l2.933,3.391l9.572,-3.82l-12.505,0.429Z" style="fill:#652680;"/><path d="M21.702,82.744l0.899,2.829l12.505,-0.429l-13.404,-2.4Z" style="fill:#5c2972;"/><path d="M33.543,93.272l1.563,-8.128l-9.592,3.797l8.029,4.331Z" style="fill:#62267b;"/><path d="M44.614,93.655l-11.071,-0.383l1.563,-8.128l9.508,8.511Z" style="fill:#5b2572;"/><path d="M43.557,87.707l-8.451,-2.563l9.508,8.511l5.164,2.884l-6.221,-8.832Z" style="fill:#552868;"/><path d="M50.692,84.243l-0.914,12.296l-6.221,-8.832l7.135,-3.464Z" style="fill:#5b266b;"/><path d="M56.289,88.205l-1.136,5.172l-4.461,-9.134l5.597,3.962Z" style="fill:#752871;"/><path d="M49.778,96.539l4.677,1.765l0.698,-4.927l-4.461,-9.134l-0.914,12.296Z" style="fill:#6d2870;"/><path d="M68.031,91.406l-0.865,-7.707l10.007,6.614l-9.142,1.093Z" style="fill:#9d337d;"/><path d="M77.173,90.313l0.515,10.404l-9.657,-9.311l9.142,-1.093Z" style="fill:#692671;"/><path d="M114.615,103.241l-17.858,-3.224l-3.281,-9.645l21.139,12.869Z" style="fill:#c6678d;"/><path d="M86.965,100.286l-9.792,-9.973l19.584,9.704l-9.792,0.269Z" style="fill:#b65a77;"/><path d="M77.688,100.717l9.277,-0.431l-9.792,-9.973l0.515,10.404Z" style="fill:#6f2a72;"/><path d="M84.503,107.765l2.462,-7.479l-9.277,0.431l6.815,7.048Z" style="fill:#511770;"/><path d="M92.806,108.036l-5.841,-7.75l-2.462,7.479l8.303,0.271Z" style="fill:#8d2e78;"/><path d="M96.757,100.017l-3.951,8.019l-5.841,-7.75l9.792,-0.269Z" style="fill:#c16672;"/><path d="M107.68,107.244l-10.923,-7.227l17.858,3.224l-6.935,4.003Z" style="fill:#b56f7d;"/><path d="M92.806,108.036l14.874,-0.792l-10.923,-7.227l-3.951,8.019Z" style="fill:#823970;"/><path d="M94.864,114.77l12.816,-7.526l-14.874,0.792l2.058,6.734Z" style="fill:#8a3a71;"/><path d="M54.496,102.51l-0.041,-4.206l0.698,-4.927l8.488,7.34l-9.145,1.793Z" style="fill:#5b266b;"/><path d="M51.76,110.059l2.736,-7.549l-4.718,-5.971l1.982,13.52Z" style="fill:#b45891;"/><path d="M32.733,96.336l17.045,0.203l-5.164,-2.884l-11.881,2.681Z" style="fill:#b45891;"/><path d="M63.641,100.717l-4.805,9.342l-4.34,-7.549l9.145,-1.793Z" style="fill:#5b266b;"/><path d="M66.129,115.012l-7.293,-4.953l4.805,-9.342l2.488,14.295Z" style="fill:#42216c;"/><path d="M70.318,105.217l-4.189,9.795l-2.488,-14.295l6.677,4.5Z" style="fill:#55226a;"/><path d="M84.503,107.765l-18.374,7.247l4.189,-9.795l14.185,2.548Z" style="fill:#e9b8b6;"/><path d="M79.901,119.464l-7.691,-6.85l12.293,-4.849l-4.602,11.699Z" style="fill:#e9b8b6;"/><path d="M90.431,122.38l-10.53,-2.916l14.963,-4.694l-4.433,7.61Z" style="fill:#dba097;"/><path d="M112.238,111.807l-17.374,2.963l12.816,-7.526l4.558,4.563Z" style="fill:#823970;"/><path d="M100.815,120.278l11.423,-8.471l-17.374,2.963l5.951,5.508Z" style="fill:#772c72;"/><path d="M112.238,111.807l-11.423,8.471l21.58,0l-10.157,-8.471Z" style="fill:#762c6f;"/><path d="M72.21,112.614l7.691,6.85l-14.718,0.653l7.027,-7.503Z" style="fill:#e9b8b6;"/><path d="M9.212,74.323l-5.51,-8.912l4.417,-1.416l1.093,10.328Z" style="fill:#9e4697;"/><path d="M87.473,67.426l-7.329,7.681l17.361,1.916l-10.032,-9.597Z" style="fill:#692671;"/><path d="M110.644,72.495l-2.945,-6.275l-10.194,10.803l13.139,-4.528Z" style="fill:#c36979;"/></g><path d="M93.476,90.372l21.139,12.869l-3.304,-13.281l-17.835,0.412Z" style="fill:#dfa39e;"/><path d="M101.386,80.35l-7.91,10.022l17.835,-0.412l-9.925,-9.61Z" style="fill:#dfa39e;"/><path d="M94.187,80.037l-0.711,10.335l7.91,-10.022l-7.199,-0.313Z" style="fill:#d79590;"/><path d="M80.144,75.107l13.332,15.265l0.711,-10.335l-14.043,-4.93Z" style="fill:#c7688e;"/><path d="M72.862,80.037l7.282,-4.93l13.332,15.265l-20.614,-10.335Z" style="fill:#dfa39e;"/><path d="M73.871,73.235l-1.009,6.802l7.282,-4.93l-6.273,-1.872Z" style="fill:#d99c9b;"/><path d="M56.289,76.09l17.582,-2.855l-11.962,-3.016l-5.62,5.871Z" style="fill:#eecbca;"/><path d="M45.749,76.09l10.54,0l5.62,-5.871l-16.16,5.871Z" style="fill:#e9b8b6;"/><path d="M53.829,67.844l-8.08,8.246l16.16,-5.871l-8.08,-2.375Z" style="fill:#e9b8b6;"/><path d="M56.906,59.94l5.003,10.279l-1.206,-9.496l-3.797,-0.783Z" style="fill:#c7688e;"/><path d="M61.909,53.03l-5.003,6.91l3.797,0.783l1.206,-7.693Z" style="fill:#c7688e;"/><path d="M57.687,48.607l6.909,1.661l-2.687,2.762l-4.222,-4.423Z" style="fill:#96317c;"/><path d="M56.906,40.312l0.781,8.295l6.909,1.661l-7.69,-9.956Z" style="fill:#7e2a73;"/><path d="M63.138,40.312l1.458,9.956l4.917,-4.948l-6.375,-5.008Z" style="fill:#cf7a91;"/><path d="M56.906,40.312l7.69,9.956l-1.458,-9.956l-6.232,0Z" style="fill:#c7688e;"/><path d="M65.995,30.625l-2.857,9.595l-6.232,0.092l-0.126,-7.122l9.215,-2.565Z" style="fill:#d7839a;"/><path d="M50.29,40.22l6.49,-7.03l0.126,7.122l-6.616,-0.092Z" style="fill:#96317c;"/><path d="M43.756,37.438l6.534,2.782l6.49,-7.03l-13.024,4.248Z" style="fill:#db90a4;"/><path d="M33.386,41.045l10.37,-3.607l-1.744,-11.211l-8.626,14.818Z" style="fill:#e4c3c2;"/><path d="M35.297,30.107l-5.151,7.87l3.24,3.068l8.626,-14.818l-6.715,3.88Z" style="fill:#e4c3c2;"/><path d="M29.418,42.858l0.728,-4.881l3.24,3.068l-3.968,1.813Z" style="fill:#e4c3c2;"/><path d="M43.756,37.438l-12.669,15.739l2.299,-12.132l10.37,-3.607Z" style="fill:#ecc9c8;"/><path d="M29.418,42.858l1.669,10.319l2.299,-12.132l-3.968,1.813Z" style="fill:#ecc9c8;"/><path d="M45.181,51.375l-14.094,1.802l12.669,-15.739l1.425,13.937Z" style="fill:#ecc9c8;"/><path d="M49.854,49.059l-6.098,-11.621l1.425,13.937l4.673,-2.316Z" style="fill:#d7839a;"/><path d="M50.29,40.22l-0.436,8.839l-6.098,-11.621l6.534,2.782Z" style="fill:#d7839a;"/><path d="M56.906,40.312l-7.052,8.747l0.436,-8.839l6.616,0.092Z" style="fill:#96317c;"/><path d="M57.687,48.607l-7.833,0.452l7.052,-8.747l0.781,8.295Z" style="fill:#7e2a73;"/><path d="M56.906,59.94l0.781,-11.333l4.222,4.423l-5.003,6.91Z" style="fill:#cf7a91;"/><path d="M49.854,49.059l-2.821,7.154l9.873,3.727l0.781,-11.333l-7.833,0.452Z" style="fill:#eecbca;"/><path d="M45.181,51.375l1.852,4.838l2.821,-7.154l-4.673,2.316Z" style="fill:#e9b8b6;"/><path d="M53.829,67.844l-6.796,-11.631l9.873,3.727l5.003,10.279l-8.08,-2.375Z" style="fill:#eecbca;"/><path d="M41.832,68.426l5.201,-12.213l6.796,11.631l-11.997,0.582Z" style="fill:#eecbca;"/><path d="M45.181,51.375l-3.349,17.051l5.201,-12.213l-1.852,-4.838Z" style="fill:#c7688e;"/><path d="M37.497,59.94l4.335,8.486l3.349,-17.051l-7.684,8.565Z" style="fill:#c7688e;"/><path d="M31.087,53.177l6.446,6.724l7.648,-8.526l-14.094,1.802Z" style="fill:#d7839a;"/><path d="M22.485,47.85l8.602,5.327l-1.669,-10.319l-6.933,4.992Z" style="fill:#ecc9c8;"/><path d="M19.798,39.515l9.62,3.343l0.728,-4.881l-10.348,1.538Z" style="fill:#96317c;"/><path d="M22.485,47.85l6.933,-4.992l-9.62,-3.343l2.687,8.335Z" style="fill:#72336e;"/><path d="M15.402,58.123l7.083,-10.273l-2.687,-8.335l-4.396,18.608Z" style="fill:#72336e;"/><path d="M31.087,53.177l-15.685,4.946l7.083,-10.273l8.602,5.327Z" style="fill:#ecc9c8;"/><path d="M23.244,63.203l-7.842,-5.08l15.685,-4.946l-7.843,10.026Z" style="fill:#ecc9c8;"/><path d="M37.533,59.901l-14.289,3.302l7.843,-10.026l6.446,6.724Z" style="fill:#ecc9c8;"/><path d="M12.354,66.848l10.89,-3.645l-7.842,-5.08l-3.048,8.725Z" style="fill:#e5b6b4;"/><path d="M8.119,63.995l4.235,2.853l3.048,-8.725l-7.283,5.872Z" style="fill:#e5b6b4;"/><path d="M9.212,74.323l3.142,-7.475l-4.235,-2.853l1.093,10.328Z" style="fill:#eabdba;"/><path d="M13.588,73.627l-1.234,-6.779l-3.142,7.475l4.376,-0.696Z" style="fill:#eabdba;"/><path d="M21.311,71.602l-8.957,-4.754l1.234,6.779l7.723,-2.025Z" style="fill:#eabdba;"/><path d="M23.244,63.203l-1.933,8.399l-8.957,-4.754l10.89,-3.645Z" style="fill:#eabcbb;"/><path d="M37.533,59.901l-16.222,11.701l1.933,-8.399l14.289,-3.302Z" style="fill:#ecc9c8;"/><path d="M31.901,75.551l5.632,-15.65l-16.222,11.701l10.59,3.949Z" style="fill:#d7839a;"/><path d="M35.106,85.144l-3.205,-9.593l5.632,-15.65l-2.427,25.243Z" style="fill:#b65a77;"/><path d="M41.728,78.995l-6.622,6.149l1.006,-10.468l5.616,4.319Z" style="fill:#9d337d;"/><path d="M41.832,68.426l-5.72,6.25l1.421,-14.775l4.299,8.525Z" style="fill:#dfa39e;"/><path d="M45.749,76.09l-3.917,-7.664l11.997,-0.582l-8.08,8.246Z" style="fill:#e9b8b6;"/><path d="M36.112,74.676l5.616,4.316l0.104,-10.566l-5.72,6.25Z" style="fill:#dfa39e;"/><path d="M45.749,76.09l-4.021,2.902l0.104,-10.566l3.917,7.664Z" style="fill:#e9b8b6;"/><path d="M50.692,84.243l5.597,-8.153l-10.54,0l4.943,8.153Z" style="fill:#dfa39e;"/><path d="M59.715,80.878l14.156,-7.643l-17.582,2.855l-5.597,8.153l9.023,-3.365Z" style="fill:#d69a95;"/><path d="M67.166,83.699l5.696,-3.662l1.009,-6.802l-6.705,10.464Z" style="fill:#d99c9b;"/><path d="M59.613,80.916l7.553,2.783l6.705,-10.464l-14.258,7.681Z" style="fill:#dfa39e;"/><path d="M43.557,87.707l7.135,-3.464l-4.943,-8.153l-2.192,11.617Z" style="fill:#dfa39e;"/><path d="M41.728,78.992l1.829,8.715l2.192,-11.617l-4.021,2.902Z" style="fill:#e9b8b6;"/><path d="M35.106,85.144l8.451,2.563l-1.829,-8.715l-6.622,6.152Z" style="fill:#9d337d;"/><path d="M21.311,71.602l13.795,13.542l-3.205,-9.593l-10.59,-3.949Z" style="fill:#8a2f77;"/><path d="M21.702,82.744l-0.391,-11.142l13.795,13.542l-13.404,-2.4Z" style="fill:#8a2f77;"/><path d="M13.588,73.627l3.263,4.109l4.46,-6.134l-7.723,2.025Z" style="fill:#eabdba;"/><path d="M4.606,95.236l12.88,-2.519l-8.274,-6.848l-4.606,9.367Z" style="fill:#e5b6b3;"/><path d="M9.212,101.309l8.274,-8.592l-12.88,2.519l4.606,6.073Z" style="fill:#e5b6b3;"/><path d="M5.135,109.168l4.077,-7.859l-4.606,-6.073l0.529,13.932Z" style="fill:#dba097;"/><path d="M25.534,97.961l-16.322,3.348l8.274,-8.592l8.048,5.244Z" style="fill:#eabdba;"/><path d="M67.166,83.699l-12.013,9.678l1.136,-5.172l3.324,-7.289l7.553,2.783Z" style="fill:#d59a95;"/><path d="M77.173,90.313l-4.311,-10.276l-5.696,3.662l10.007,6.614Z" style="fill:#dfa39e;"/><path d="M55.153,93.377l12.878,-1.971l-0.865,-7.707l-12.013,9.678Z" style="fill:#d59a95;"/><path d="M63.641,100.717l4.39,-9.311l-12.878,1.971l8.488,7.34Z" style="fill:#dfa39e;"/><path d="M77.688,100.717l-9.657,-9.311l-4.39,9.311l14.047,0Z" style="fill:#dfa39e;"/><path d="M93.476,90.372l-16.303,-0.059l-4.314,-10.276l20.617,10.335Z" style="fill:#dfa39e;"/><path d="M96.757,100.017l-19.584,-9.704l16.303,0.059l3.281,9.645Z" style="fill:#dfa39e;"/><path d="M84.503,107.765l10.361,7.005l-2.058,-6.734l-8.303,-0.271Z" style="fill:#6f2a72;"/><path d="M70.318,105.217l14.185,2.548l-6.815,-7.048l-7.37,4.5Z" style="fill:#dfa39e;"/><path d="M63.641,100.717l6.677,4.5l7.37,-4.5l-14.047,0Z" style="fill:#dfa39e;"/><path d="M49.778,96.539l4.718,5.971l-0.041,-4.206l-4.677,-1.765Z" style="fill:#511770;"/><path d="M51.76,110.059l-19.027,-13.723l17.045,0.203l1.982,13.52Z" style="fill:#c7688e;"/><path d="M28.897,109.69l3.836,-13.354l-7.199,1.625l3.363,11.729Z" style="fill:#e9b8b6;"/><path d="M17.373,109.69l11.524,0l-3.363,-11.729l-8.161,11.729Z" style="fill:#dba097;"/><path d="M9.212,101.309l8.161,8.381l8.161,-11.729l-16.322,3.348Z" style="fill:#dba097;"/><path d="M12.207,110.69l5.166,-1l-8.161,-8.381l2.995,9.381Z" style="fill:#8a2f77;"/><path d="M5.135,109.168l7.072,1.522l-2.995,-9.381l-4.077,7.859Z" style="fill:#dba097;"/><path d="M7.582,112.369l4.625,-1.679l-7.072,-1.522l2.447,3.201Z" style="fill:#dba097;"/><path d="M10.806,118.926l1.401,-8.236l-4.625,1.679l3.224,6.557Z" style="fill:#dba097;"/><path d="M17.373,115.812l-5.166,-5.122l-1.447,8.236l6.613,-3.114Z" style="fill:#dba097;"/><path d="M17.373,109.69l0,6.122l-5.166,-5.122l5.166,-1Z" style="fill:#8a2f77;"/><path d="M23.135,109.69l-5.762,6.122l0,-6.122l5.762,0Z" style="fill:#c7688e;"/><path d="M26.83,115.812l2.067,-6.122l-5.762,0l3.695,6.122Z" style="fill:#c7688e;"/><path d="M51.76,110.059l-22.863,-0.369l3.836,-13.354l19.027,13.723Z" style="fill:#e9b8b6;"/><path d="M58.836,110.059l-4.34,-7.549l-2.736,7.549l7.076,0Z" style="fill:#c7688e;"/><path d="M65.183,120.117l7.027,-7.503l-6.081,2.398l-0.946,5.105Z" style="fill:#ecc9c8;"/><path d="M94.864,114.77l-14.963,4.694l4.602,-11.699l10.361,7.005Z" style="fill:#dba097;"/><path d="M122.841,126.918l-22.026,-6.64l21.58,0l0.446,6.64Z" style="fill:#6f2a72;"/><path d="M99.163,124.966l23.678,1.952l-22.026,-6.64l-1.652,4.688Z" style="fill:#6f2a72;"/><path d="M90.431,122.38l8.732,2.586l1.652,-4.688l-5.951,-5.508l-4.433,7.61Z" style="fill:#d1868d;"/><path d="M91.221,127.426l7.942,-2.46l-8.732,-2.586l0.79,5.046Z" style="fill:#d1868d;"/><path d="M77.329,123.598l13.102,-1.218l0.79,5.046l-13.892,-3.828Z" style="fill:#d1868d;"/><path d="M79.901,119.464l-14.718,0.653l12.146,3.481l13.102,-1.218l-10.53,-2.916Z" style="fill:#dba097;"/><path d="M51.76,110.059l14.369,4.953l-7.293,-4.953l-7.076,0Z" style="fill:#c7688e;"/><path d="M41.382,114.468l10.378,-4.409l14.369,4.953l-24.747,-0.544Z" style="fill:#e9b8b6;"/><path d="M28.897,109.69l12.485,4.778l10.378,-4.409l-22.863,-0.369Z" style="fill:#e9b8b6;"/><path d="M35.867,122.794l-6.97,-13.104l-2.067,6.122l9.037,6.982Z" style="fill:#b45891;"/><path d="M41.382,114.468l-5.515,8.326l-6.97,-13.104l12.485,4.778Z" style="fill:#c7688e;"/><path d="M26.83,115.812l-9.457,0l5.762,-6.122l3.695,6.122Z" style="fill:#c7688e;"/><path d="M17.373,115.812l18.494,6.982l-9.037,-6.982l-9.457,0Z" style="fill:#dba097;"/><path d="M10.806,118.926l6.567,-3.114l-2.377,8.985l-4.19,-5.871Z" style="fill:#c7688e;"/><path d="M20.002,123.86l-2.629,-8.048l-2.377,8.985l5.006,-0.937Z" style="fill:#c7688e;"/><path d="M31.397,127.74l-14.024,-11.928l2.629,8.048l11.395,3.88Z" style="fill:#d1868d;"/><path d="M29.334,120.305l2.063,7.435l-14.024,-11.928l11.961,4.493Z" style="fill:#dba097;"/><path d="M35.867,122.794l-4.47,4.946l-2.056,-7.41l6.526,2.464Z" style="fill:#dba097;"/><path d="M27.711,131.62l-7.709,-7.76l11.395,3.88l-3.686,3.88Z" style="fill:#c7688e;"/><path d="M49.841,134.775l-4.344,-9.226l-9.63,-2.755l-4.47,4.946l18.444,7.035Z" style="fill:#dba097;"/><path d="M44.363,140.166l-12.966,-12.426l-3.686,3.88l7.566,4.047l9.086,4.499Z" style="fill:#b45891;"/><path d="M49.841,134.775l-5.478,5.391l-12.966,-12.426l18.444,7.035Z" style="fill:#c7688e;"/><path d="M57.044,143.012l-7.203,-8.237l-5.478,5.391l12.681,2.846Z" style="fill:#c7688e;"/><path d="M41.382,114.5l4.115,11.049l-9.63,-2.755l5.515,-8.294Z" style="fill:#b45891;"/><path d="M65.183,120.025l-23.801,-5.525l24.747,0.512l-0.946,5.013Z" style="fill:#ecc9c8;"/><path d="M65.591,126.684l-24.209,-12.184l23.801,5.525l0.408,6.659Z" style="fill:#cf7a91;"/><path d="M45.497,125.549l20.094,1.135l-24.209,-12.184l4.115,11.049Z" style="fill:#8a2f77;"/><path d="M77.329,123.598l-11.738,3.086l-0.408,-6.659l12.146,3.573Z" style="fill:#cf7c7d;"/><path d="M83.434,136.32l7.787,-8.894l-13.892,-3.828l6.105,12.722Z" style="fill:#cf7c7d;"/><path d="M65.591,126.684l17.843,9.636l-6.105,-12.722l-11.738,3.086Z" style="fill:#b45891;"/><path d="M66.51,135.783l16.924,0.537l-17.843,-9.636l0.919,9.099Z" style="fill:#6d2870;"/><path d="M45.497,125.549l21.013,10.234l-0.919,-9.099l-20.094,-1.135Z" style="fill:#42216c;"/><path d="M49.841,134.775l16.669,1.008l-21.013,-10.234l4.344,9.226Z" style="fill:#c7688e;"/><path d="M57.044,143.012l9.466,-7.229l-16.669,-1.008l7.203,8.237Z" style="fill:#963f94;"/><path d="M79.921,144.095l-13.411,-8.312l-9.466,7.229l22.877,1.083Z" style="fill:#5b266b;"/><path d="M83.434,136.32l-3.513,7.775l-13.411,-8.312l16.924,0.537Z" style="fill:#6d2870;"/><path d="M87.556,140.306l-7.635,3.789l3.513,-7.775l4.122,3.986Z" style="fill:#8a2f77;"/><path d="M103.148,133.648l-15.592,6.658l-4.122,-3.986l19.714,-2.672Z" style="fill:#d07b7d;"/><path d="M91.221,127.426l11.927,6.222l-19.714,2.672l7.787,-8.894Z" style="fill:#d1868d;"/><path d="M97.042,125.623l6.106,8.025l-11.927,-6.222l5.821,-1.803Z" style="fill:#d1868d;"/><path d="M99.163,124.966l1.252,0.103l2.733,8.579l-6.106,-8.025l2.121,-0.657Z" style="fill:#d1868d;"/><path d="M95.921,143.012l7.227,-9.364l-15.592,6.658l8.365,2.706Z" style="fill:#d07b7d;"/><path d="M103.148,143.623l0.052,-9.975l-7.279,9.364l7.227,0.611Z" style="fill:#d07b7d;"/><path d="M122.841,126.918l-19.693,6.73l-2.728,-8.564l22.421,1.834Z" style="fill:#55226a;"/><path d="M71.704,7.031l-18.886,15.331l19.444,-9.992l-0.558,-5.339Z" style="fill:#ecc9c8;"/><path d="M52.818,16.934l6.709,-0.018l7.748,-6.29l-14.457,6.308Z" style="fill:#ecc9c8;"/><path d="M52.818,22.362l0,-5.428l6.687,0l-6.687,5.428Z" style="fill:#883685;"/><path d="M42.012,26.227l10.806,-9.293l0,5.428l-10.806,3.865Z" style="fill:#96317c;"/><path d="M41.528,22.911l0.484,3.316l8.049,-6.921l-8.533,3.605Z" style="fill:#eecbca;"/><path d="M35.297,30.107l6.231,-7.196l0.484,3.316l-6.715,3.88Z" style="fill:#eecbca;"/><path d="M28.976,31.423l6.321,-1.316l-5.151,7.87l-1.17,-6.554Z" style="fill:#96317c;"/><path d="M19.798,39.515l9.178,-8.092l1.17,6.554l-10.348,1.538Z" style="fill:#cf7a91;"/><path d="M15.402,58.123l4.396,-18.608l-9.562,16.143l5.166,2.465Z" style="fill:#da8fa4;"/><path d="M12.478,47.993l-2.242,7.665l9.562,-16.143l-7.32,8.478Z" style="fill:#cf7a91;"/><path d="M8.119,63.995l7.283,-5.872l-5.166,-2.465l-2.117,8.337Z" style="fill:#e5b6b4;"/><path d="M5.413,59.826l2.706,4.169l2.117,-8.337l-4.823,4.168Z" style="fill:#da8fa4;"/><path d="M3.702,65.411l1.711,-5.585l2.706,4.169l-4.417,1.416Z" style="fill:#da8fa4;"/><path d="M3.375,83.852l5.837,-9.529l-5.51,-8.912l-0.327,18.441Z" style="fill:#b65a77;"/><path d="M14.083,80.786l-10.708,3.066l5.837,-9.529l4.871,6.463Z" style="fill:#b65a77;"/><path d="M0,92.717l9.212,-6.848l-5.837,-2.017l-3.375,8.865Z" style="fill:#e5b6b3;"/><path d="M4.606,95.236l4.606,-9.367l-9.212,6.848l4.606,2.519Z" style="fill:#e5b6b3;"/><path d="M0.77,101.518l3.836,-6.282l-4.606,-2.519l0.77,8.801Z" style="fill:#dba097;"/><path d="M5.135,109.168l-0.529,-13.932l-3.836,6.282l4.365,7.65Z" style="fill:#d1868d;"/><path d="M3.375,111.528l1.76,-2.36l-2.183,-3.825l0.423,6.185Z" style="fill:#c7688e;"/><path d="M7.582,112.369l-4.207,-0.841l1.76,-2.36l2.447,3.201Z" style="fill:#c7688e;"/><path d="M7.236,121.103l0.346,-8.734l-4.207,-0.841l3.861,9.575Z" style="fill:#c7688e;"/><path d="M10.518,125.482l-3.282,-4.379l0.346,-8.734l3.224,6.652l-0.288,6.461Z" style="fill:#b45891;"/><path d="M14.996,124.797l-4.19,-5.871l-0.288,6.556l4.478,-0.685Z" style="fill:#b45891;"/><path d="M14.996,128.175l0,-3.378l-4.478,0.685l4.478,2.693Z" style="fill:#b45891;"/><path d="M20.002,123.86l-5.006,0.937l0,3.378l5.006,-4.315Z" style="fill:#b45891;"/><path d="M15.879,137.636l-0.883,-9.461l6.218,6.412l-5.335,3.049Z" style="fill:#a63a92;"/><path d="M27.711,131.62l-7.709,-7.76l-5.006,4.315l12.715,3.445Z" style="fill:#b45891;"/><path d="M21.214,134.587l6.497,-2.967l-12.715,-3.445l6.218,6.412Z" style="fill:#8a2f77;"/><path d="M24.727,138.22l7.076,-1.985l-10.589,-1.648l3.513,3.633Z" style="fill:#a63a92;"/><path d="M15.879,137.636l8.848,0.584l-3.513,-3.633l-5.335,3.049Z" style="fill:#8a2f77;"/><path d="M27.151,143.666l-2.424,-5.446l-8.848,-0.584l11.272,6.03Z" style="fill:#652680;"/><path d="M37.971,142.273l-6.188,-6.041l-7.056,1.988l13.244,4.053Z" style="fill:#a63a92;"/><path d="M27.151,143.666l10.82,-1.393l-13.244,-4.053l2.424,5.446Z" style="fill:#8a2f77;"/><path d="M44.96,150.846l-17.809,-7.18l10.82,-1.393l6.989,8.573Z" style="fill:#552867;"/><path d="M31.783,136.232l3.494,-0.565l-7.566,-4.047l-6.497,2.967l10.569,1.645Z" style="fill:#8a2f77;"/><path d="M37.971,142.273l-2.694,-6.606l-3.494,0.565l6.188,6.041Z" style="fill:#6d2870;"/><path d="M44.363,140.166l-6.392,2.107l-2.694,-6.606l9.086,4.499Z" style="fill:#8a2f77;"/><path d="M44.96,150.846l-0.597,-10.68l-6.392,2.107l6.989,8.573Z" style="fill:#6d2870;"/><path d="M57.044,143.012l-12.681,-2.846l0.597,10.68l12.084,-7.834Z" style="fill:#6d2870;"/><path d="M59.386,150.091l-7.814,-3.532l-6.612,4.287l14.426,-0.755Z" style="fill:#62267b;"/><path d="M59.386,152.979l0,-2.888l-14.426,0.755l14.426,2.133Z" style="fill:#a63a92;"/><path d="M72.795,150.091l-13.409,2.888l0,-2.888l13.409,0Z" style="fill:#a63a92;"/><path d="M57.044,143.012l2.342,7.079l-7.814,-3.532l5.472,-3.547Z" style="fill:#62267b;"/><path d="M72.795,150.091l-15.751,-7.079l2.342,7.079l13.409,0Z" style="fill:#62267b;"/><path d="M81.452,154.23l-8.657,-4.139l-13.409,2.888l22.066,1.251Z" style="fill:#a63a92;"/><path d="M86.689,148.703l-5.237,5.527l10.754,-2.069l-5.517,-3.458Z" style="fill:#8a2f77;"/><path d="M72.795,150.091l7.126,-1.388l1.531,5.527l-8.657,-4.139Z" style="fill:#7d2593;"/><path d="M86.689,148.703l-6.768,0l1.531,5.527l5.237,-5.527Z" style="fill:#7d2593;"/><path d="M87.556,140.306l4.65,11.855l-5.517,-3.458l-6.768,-4.608l7.635,-3.789Z" style="fill:#8a2f77;"/><path d="M79.921,148.703l0,-4.608l6.768,4.608l-6.768,0Z" style="fill:#7d2593;"/><path d="M72.795,150.091l7.126,-5.996l0,4.608l-7.126,1.388Z" style="fill:#7d2593;"/><path d="M57.044,143.012l22.877,1.083l-7.126,5.996l-15.751,-7.079Z" style="fill:#7d2593;"/><path d="M95.921,143.012l-3.715,9.149l-4.65,-11.855l8.365,2.706Z" style="fill:#d07b7d;"/><path d="M103.2,143.582l-7.279,-0.57l-3.715,9.149l10.994,-8.579Z" style="fill:#d07b7d;"/><path d="M72.262,12.37l-19.444,9.992l19.444,-4.914l0,-5.078Z" style="fill:#96317c;"/><path d="M90.99,6.241l-10.354,2.429l-4.265,-2.136l14.619,-0.293Z" style="fill:#eabdba;"/><path d="M96.428,3.286l-5.438,2.955l-14.619,0.293l20.057,-3.248Z" style="fill:#eabdba;"/><path d="M85.29,2.921l11.138,0.365l17.75,-3.286l-28.888,2.921Z" style="fill:#eecbca;"/><path d="M76.371,6.534l8.919,-3.613l11.138,0.365l-20.057,3.248Z" style="fill:#eabdba;"/><path d="M76.371,6.534l8.919,-3.613l-10.042,2.585l-3.544,1.525l4.667,-0.497Z" style="fill:#eecbca;"/><path d="M72.262,12.37l8.374,-3.7l-4.265,-2.136l-4.109,5.836Z" style="fill:#7e2a73;"/><path d="M71.704,7.031l0.558,5.339l4.187,-5.796l-4.745,0.457Z" style="fill:#7e2a73;"/><path d="M72.262,17.448l0,-5.078l13.478,4.257l-13.478,0.821Z" style="fill:#7e2a73;"/><path d="M80.636,8.67l-8.374,3.7l13.469,4.257l3.276,-4.784l-8.371,-3.173Z" style="fill:#883685;"/><path d="M92.631,19.254l-3.624,-7.411l-3.267,4.771l6.891,2.64Z" style="fill:#7e2a73;"/><path d="M80.636,8.67l8.371,3.173l1.961,-5.601l-10.332,2.428Z" style="fill:#8e4580;"/><path d="M109.8,5.34l-18.832,0.902l5.46,-2.956l13.372,2.054Z" style="fill:#e4c3c2;"/><path d="M114.178,2.6l-4.378,2.74l-13.372,-2.054l17.75,-0.686Z" style="fill:#c65b8a;"/><path d="M114.178,0l0,2.6l-17.75,0.686l17.75,-3.286Z" style="fill:#e4c3c2;"/><path d="M126.423,3.97l-12.245,-1.37l0,-2.6l12.245,3.97Z" style="fill:#e4c3c2;"/><path d="M137.05,1.985l-10.627,1.985l16.24,1.693l-5.613,-3.678Z" style="fill:#eccac9;"/><path d="M114.178,0l22.872,1.985l-10.627,1.985l-12.245,-3.97Z" style="fill:#d59a95;"/><g><path d="M127.458,10.497l-1.035,-6.527l-5.494,-0.615l6.529,7.142Z" style="fill:#63246c;"/><path d="M132.606,10.497l-6.183,-6.527l1.035,6.527l1.27,4.183l3.878,-4.183Z" style="fill:#952c79;"/><path d="M128.732,14.677l9.879,5.196l-6.005,-9.376l-3.874,4.18Z" style="fill:#892e77;"/><path d="M139.122,26.901l-0.511,-7.028l-9.879,-5.193l10.39,12.221Z" style="fill:#7b2c75;"/><path d="M139.122,26.901l9.101,-8.234l-9.612,1.206l0.511,7.028Z" style="fill:#641f73;"/><path d="M149.345,62.475l9.269,6.637l-5.628,-10.934l-3.641,4.297Z" style="fill:#7b386d;"/><path d="M152.298,76.076l-2.953,-13.601l9.269,6.637l-6.316,6.964Z" style="fill:#55226a;"/><path d="M164.571,78.149l-12.273,-2.073l6.316,-6.964l5.957,9.037Z" style="fill:#7e2b71;"/><path d="M169.91,71.356l-5.339,6.793l-5.957,-9.037l11.296,2.244Z" style="fill:#8d2e78;"/><path d="M175.977,78.855l-6.067,-7.499l-5.339,6.793l11.406,0.706Z" style="fill:#8d2e78;"/><path d="M179.067,72.295l-3.09,6.56l-6.067,-7.499l9.157,0.939Z" style="fill:#8d2e78;"/><path d="M183.038,75.251l-3.971,-2.956l-3.09,6.56l7.061,-3.604Z" style="fill:#9b2f7d;"/><path d="M184.689,69.112l-1.651,6.139l-3.971,-2.956l5.622,-3.183Z" style="fill:#c65b8a;"/><path d="M147.657,29.615l-8.535,-2.714l5.237,-4.738l3.298,7.452Z" style="fill:#922b79;"/><path d="M141.601,31.303l6.056,-1.688l-8.535,-2.714l2.479,4.402Z" style="fill:#9b2f7d;"/><path d="M151.801,39.454l-10.2,-8.151l6.056,-1.688l4.144,9.839Z" style="fill:#7e2a73;"/><path d="M144.359,38.559l7.442,0.895l-10.2,-8.151l2.758,7.256Z" style="fill:#882d76;"/><path d="M152.986,48.919l-8.627,-10.36l7.442,0.895l1.185,9.465Z" style="fill:#782b74;"/><path d="M148.196,54.896l4.79,-5.977l-8.627,-10.36l3.837,16.337Z" style="fill:#5c1f67;"/><path d="M152.986,58.178l0,-9.259l-4.79,5.977l4.79,3.282Z" style="fill:#682c6f;"/><path d="M149.345,62.475l-1.149,-7.579l4.79,3.282l-3.641,4.297Z" style="fill:#853973;"/><path d="M147.025,77.186l5.273,-1.11l-2.953,-13.601l-2.32,14.711Z" style="fill:#6e2770;"/><path d="M149.661,85.973l2.637,-9.897l-5.273,1.11l2.636,8.787Z" style="fill:#601b6f;"/><path d="M157.827,88.302l-5.529,-12.226l-2.637,9.897l8.166,2.329Z" style="fill:#772d70;"/><path d="M158.871,77.186l-1.044,11.116l-5.529,-12.226l6.573,1.11Z" style="fill:#6e2770;"/><path d="M149.124,96.81l6.817,6.828l1.886,-15.336l-8.703,8.508Z" style="fill:#350771;"/><path d="M149.661,85.973l-0.537,10.837l8.703,-8.508l-8.166,-2.329Z" style="fill:#52237b;"/></g><path d="M114.178,2.6l13.28,7.897l-6.529,-7.142l-6.751,-0.755Z" style="fill:#ecd4c3;"/><path d="M122.382,12.496l-8.204,-9.896l13.28,7.897l-5.076,1.999Z" style="fill:#ecd4c3;"/><path d="M128.728,14.68l-6.346,-2.184l5.076,-1.999l1.27,4.183Z" style="fill:#ecd4c3;"/><path d="M142.663,5.663l-10.057,4.834l-6.183,-6.527l16.24,1.693Z" style="fill:#ecd4c3;"/><path d="M152.932,13.945l-10.269,-8.282l-10.057,4.834l20.326,3.448Z" style="fill:#eccac9;"/><path d="M148.223,18.667l4.709,-4.722l-20.326,-3.448l15.617,8.17Z" style="fill:#ebccc1;"/><path d="M138.611,19.873l9.612,-1.206l-15.617,-8.17l6.005,9.376Z" style="fill:#cf7a91;"/><path d="M115.131,11.02l-0.953,-8.42l-4.378,2.74l5.331,5.68Z" style="fill:#7e2a73;"/><path d="M122.382,12.496l-7.251,-1.476l-0.953,-8.42l8.204,9.896Z" style="fill:#c65b8a;"/><path d="M152.932,13.945l11.31,9.523l-19.883,-1.305l3.864,-3.496l4.709,-4.722Z" style="fill:#ecd4c3;"/><path d="M147.657,29.615l16.585,-6.147l-19.883,-1.305l3.298,7.452Z" style="fill:#ecd4c3;"/><path d="M166.197,34.854l-18.54,-5.239l16.585,-6.147l1.955,11.386Z" style="fill:#eecbca;"/><path d="M151.801,39.454l14.396,-4.6l-18.54,-5.239l4.144,9.839Z" style="fill:#cf7a91;"/><path d="M164.242,43.459l-12.441,-4.005l14.396,-4.6l-1.955,8.605Z" style="fill:#c65b8a;"/><path d="M152.986,48.919l11.256,-5.46l-12.441,-4.005l1.185,9.465Z" style="fill:#96317c;"/><path d="M162.898,56.279l-9.912,-7.36l11.256,-5.46l-1.344,12.82Z" style="fill:#dda39b;"/><path d="M152.986,58.178l9.912,-1.899l-9.912,-7.36l0,9.259Z" style="fill:#96317c;"/><path d="M162.642,65.57l-9.656,-7.392l9.912,-1.899l-0.256,9.291Z" style="fill:#c65b8a;"/><path d="M158.614,69.112l4.028,-3.542l-9.656,-7.392l5.628,10.934Z" style="fill:#96317c;"/><path d="M169.91,71.356l14.779,-2.244l-5.622,3.183l-9.157,-0.939Z" style="fill:#c7688e;"/><path d="M185.252,60.582l-0.563,8.53l-14.779,2.244l15.342,-10.774Z" style="fill:#cf7a91;"/><path d="M162.642,65.57l-4.028,3.542l11.296,2.244l-7.268,-5.786Z" style="fill:#cf7a91;"/><path d="M178.704,65.18l-16.062,0.39l7.268,5.786l8.794,-6.176Z" style="fill:#db9f9a;"/><path d="M181.629,44.168l-2.925,21.012l6.548,-4.598l-3.623,-16.414Z" style="fill:#eabdba;"/><path d="M162.898,56.279l15.806,8.901l-16.062,0.39l0.256,-9.291Z" style="fill:#db9f9a;"/><path d="M181.629,44.168l-18.731,12.111l15.806,8.901l2.925,-21.012Z" style="fill:#ecc9c8;"/><path d="M173.643,49.331l-9.401,-5.872l-1.344,12.82l10.745,-6.948Z" style="fill:#dda39b;"/><path d="M173.643,40.815l-9.401,2.644l9.401,5.872l0,-8.516Z" style="fill:#dda39b;"/><path d="M181.629,44.168l-7.986,-3.353l0,8.516l7.986,-5.163Z" style="fill:#ecd4c3;"/><path d="M166.197,34.854l7.446,5.961l-9.401,2.644l1.955,-8.605Z" style="fill:#dda39b;"/><path d="M173.643,33.088l7.986,11.08l-7.986,-3.353l0,-7.727Z" style="fill:#cf7a91;"/><path d="M166.197,34.854l7.446,-1.766l-9.401,-9.62l1.955,11.386Z" style="fill:#96317c;"/><path d="M173.643,40.815l-7.446,-5.961l7.446,-1.766l0,7.727Z" style="fill:#cf7a91;"/><path d="M164.571,78.149l-6.744,10.153l1.044,-11.116l5.7,0.963Z" style="fill:#cf7a91;"/><path d="M179.024,88.302l-14.453,-10.153l-6.744,10.153l21.197,0Z" style="fill:#ecc9c8;"/><path d="M175.977,78.855l3.047,9.447l-14.453,-10.153l11.406,0.706Z" style="fill:#cf7a91;"/><path d="M189.932,82.744l-10.908,5.558l-3.047,-9.447l13.955,3.889Z" style="fill:#cf7a91;"/><path d="M183.038,75.251l6.894,7.493l-13.955,-3.889l7.061,-3.604Z" style="fill:#cf7a91;"/><path d="M192.757,72.74l-2.825,10.004l-6.894,-7.493l9.719,-2.511Z" style="fill:#c65b8a;"/><path d="M184.689,69.112l8.068,3.628l-9.719,2.511l1.651,-6.139Z" style="fill:#692671;"/><path d="M199.565,61.522l-14.876,7.59l0.563,-8.53l14.313,0.94Z" style="fill:#d99c9b;"/><path d="M183.545,52.852l16.02,8.67l-14.313,-0.94l-1.707,-7.73Z" style="fill:#eabdba;"/><path d="M191.555,49.615l8.01,11.907l-16.02,-8.67l8.01,-3.237Z" style="fill:#cf7a91;"/><path d="M181.629,44.168l9.926,5.447l-8.01,3.237l-1.916,-8.684Z" style="fill:#641f73;"/><path d="M187.501,40.227l4.054,9.388l-9.926,-5.447l5.872,-3.941Z" style="fill:#641f73;"/><path d="M173.643,33.088l13.858,7.139l-5.872,3.941l-7.986,-11.08Z" style="fill:#883685;"/><path d="M178.092,28.707l9.409,11.52l-12.526,-10.111l3.117,-1.409Z" style="fill:#dfa39e;"/><path d="M173.643,33.088l1.332,-2.972l12.526,10.111l-13.858,-7.139Z" style="fill:#cf7a91;"/><path d="M164.242,23.468l10.733,6.648l-1.332,2.972l-9.401,-9.62Z" style="fill:#cf7a91;"/><path d="M178.092,28.707l-3.117,1.409l-10.733,-6.648l13.85,5.239Z" style="fill:#dfa39e;"/><path d="M172.04,26.418l-16.293,-10.103l8.495,7.153l7.798,2.95Z" style="fill:#cf7a91;"/><path d="M153.576,10.394l2.171,5.921l16.293,10.103l-18.464,-16.024Z" style="fill:#eabdba;"/><path d="M150.892,12.299l2.684,-1.905l2.171,5.921l-4.855,-4.016Z" style="fill:#cf7a91;"/><path d="M142.663,5.663l10.913,4.731l-2.684,1.905l-8.229,-6.636Z" style="fill:#eabdba;"/><path d="M199.565,61.522l-6.449,-13.891l-5.615,-7.404l4.054,9.388l8.01,11.907Z" style="fill:#d4dae4;fill-opacity:0.1;"/><path d="M198.356,75.159l3.895,-4.797l-2.686,-8.84l-1.209,13.637Z" style="fill:#7e2b71;"/><path d="M192.757,72.74l5.599,2.511l1.209,-13.729l-14.876,7.59l8.068,3.628Z" style="fill:#682c6f;"/><path d="M189.932,82.744l8.424,-7.493l-5.599,-2.511l-2.825,10.004Z" style="fill:#c65b8a;"/><path d="M201.803,83.189l-3.447,-7.938l-8.424,7.493l11.871,0.445Z" style="fill:#c65b8a;"/><path d="M202.251,70.362l2.042,6.934l-2.49,5.893l-3.447,-7.938l3.895,-4.889Z" style="fill:#96317c;"/><path d="M204.797,86.257l-2.994,-3.068l2.49,-5.893l0.504,8.961Z" style="fill:#cf7a91;"/><path d="M199.418,92.983l5.379,-6.726l-2.994,-3.068l-2.385,9.794Z" style="fill:#cf7a91;"/><path d="M189.772,93.361l9.646,-0.378l2.385,-9.794l-11.871,-0.445l-0.16,10.617Z" style="fill:#cf7a91;"/><path d="M179.024,88.302l10.748,5.059l0.16,-10.617l-10.908,5.558Z" style="fill:#db9f9a;"/><path d="M179.024,100.062l10.748,-6.701l-10.748,-5.059l0,11.76Z" style="fill:#db9f9a;"/><path d="M164.236,95.552l14.788,4.51l0,-11.76l-14.788,7.25Z" style="fill:#eabdba;"/><path d="M157.827,88.302l6.409,7.25l14.788,-7.25l-21.197,0Z" style="fill:#ecc9c8;"/><path d="M155.941,103.638l8.295,-8.086l-6.409,-7.25l-1.886,15.336Z" style="fill:#692671;"/><path d="M147.025,77.186l-1.232,10.355l3.331,9.269l0.537,-10.837l-2.636,-8.787Z" style="fill:#c66b7b;"/><path d="M141.573,79.013l4.22,8.528l1.232,-10.355l-5.452,1.827Z" style="fill:#d99c9b;"/><path d="M132.623,81.403l8.95,-2.39l4.22,8.528l-13.17,-6.138Z" style="fill:#d99c9b;"/><path d="M130.774,92.135l1.849,-10.732l13.17,6.138l-15.019,4.594Z" style="fill:#dcaeab;"/><path d="M123.699,98.192l7.075,-6.057l18.35,4.675l-25.425,1.382Z" style="fill:#d68983;"/><path d="M145.793,87.541l-15.019,4.594l18.35,4.675l-3.331,-9.269Z" style="fill:#d89885;"/><path d="M126.737,102.51l-3.038,-4.318l25.425,-1.382l-4.447,4.348l-17.94,1.352Z" style="fill:#91307a;"/><path d="M155.941,103.638l-11.264,-2.48l4.447,-4.348l6.817,6.828Z" style="fill:#5b2573;"/><path d="M147.073,105.324l8.868,-1.686l-11.264,-2.48l2.396,4.166Z" style="fill:#6d2870;"/><path d="M128.26,107.765l18.813,-2.441l-2.396,-4.166l-17.94,1.352l1.523,5.255Z" style="fill:#da909b;"/><path d="M121.794,100.646l4.943,1.864l-3.038,-4.318l-1.905,2.454Z" style="fill:#5b2068;"/><path d="M114.615,103.241l7.179,-2.595l4.943,1.864l-12.122,0.731Z" style="fill:#dd9889;"/><path d="M128.26,107.765l-13.645,-4.524l12.122,-0.731l1.523,5.255Z" style="fill:#dba195;"/><path d="M111.311,89.96l3.304,13.281l7.179,-2.595l-10.483,-10.686Z" style="fill:#dfa39e;"/><path d="M123.699,98.192l-12.388,-8.232l10.483,10.686l1.905,-2.454Z" style="fill:#98337a;"/><path d="M130.774,92.135l-19.463,-2.175l12.388,8.232l7.075,-6.057Z" style="fill:#c6737c;"/><path d="M101.386,80.35l29.388,11.785l-19.463,-2.175l-9.925,-9.61Z" style="fill:#d1868d;"/><path d="M119.994,77.465l-18.608,2.885l29.388,11.785l-10.78,-14.67Z" style="fill:#dfa39e;"/><path d="M132.623,81.403l-12.629,-3.938l10.78,14.67l1.849,-10.732Z" style="fill:#dfa39e;"/><path d="M128.274,76.533l-8.28,0.932l12.629,3.938l-4.349,-4.87Z" style="fill:#c66b7b;"/><path d="M119.994,71.004l8.28,5.529l-8.28,0.932l0,-6.461Z" style="fill:#da909b;"/><path d="M110.644,72.495l9.35,-1.491l0,6.461l-9.35,-4.97Z" style="fill:#da909b;"/><path d="M101.386,80.35l9.258,-7.855l9.35,4.97l-18.608,2.885Z" style="fill:#dfa39e;"/><path d="M97.505,77.023l13.139,-4.528l-9.258,7.855l-3.881,-3.327Z" style="fill:#dfa39e;"/><path d="M94.187,80.037l3.318,-3.014l3.881,3.327l-7.199,-0.313Z" style="fill:#d1868d;"/><path d="M80.144,75.107l14.043,4.93l3.318,-3.014l-17.361,-1.916Z" style="fill:#823970;"/><path d="M107.699,66.22l-20.226,1.206l10.032,9.597l10.194,-10.803Z" style="fill:#8d2e78;"/><path d="M119.994,71.004l-12.295,-4.784l2.945,6.275l9.35,-1.491Z" style="fill:#cc6e80;"/><path d="M109.283,53.01l10.711,17.994l-3.943,-18.246l-6.768,0.252Z" style="fill:#cf7a91;"/><path d="M107.699,66.22l6.939,-4.213l5.356,8.997l-12.295,-4.784Z" style="fill:#d7839a;"/><path d="M97.887,53.365l9.812,12.855l6.939,-4.213l-16.751,-8.642Z" style="fill:#e3b6aa;"/><path d="M74.485,60.723l12.988,6.703l20.226,-1.206l-9.812,-12.855l-23.402,7.358Z" style="fill:#e3b6aa;"/><path d="M89.269,49.2l-14.784,11.523l23.402,-7.358l-8.618,-4.165Z" style="fill:#eecbca;"/><path d="M114.638,62.007l-16.751,-8.642l11.405,-0.338l5.346,8.98Z" style="fill:#eecbca;"/><path d="M89.269,49.2l8.618,4.165l18.164,-0.607l-26.782,-3.558Z" style="fill:#ecd4c3;"/><path d="M94.838,46.34l21.213,6.418l-26.782,-3.558l5.569,-2.86Z" style="fill:#ecd4c3;"/><path d="M115.22,46.34l-20.382,0l21.213,6.418l-0.831,-6.418Z" style="fill:#96317c;"/><path d="M122.542,46.34l-7.322,0l0.831,6.418l6.491,-6.418Z" style="fill:#cf7a91;"/><path d="M131.349,51.282l-8.807,-4.942l-6.491,6.418l15.298,-1.476Z" style="fill:#e3b6aa;"/><path d="M117.069,57.468l14.28,-6.186l-15.298,1.476l1.018,4.71Z" style="fill:#e3b6aa;"/><path d="M130.797,64.394l-10.803,6.61l-2.925,-13.536l13.728,6.926Z" style="fill:#96317c;"/><path d="M131.349,51.282l-0.552,13.112l-13.728,-6.926l14.28,-6.186Z" style="fill:#e3b6aa;"/><path d="M128.274,76.533l2.523,-12.139l-10.803,6.61l8.28,5.529Z" style="fill:#7e2b71;"/><path d="M141.532,79.024l-13.258,-2.491l4.349,4.87l8.909,-2.379Z" style="fill:#d38e83;"/><path d="M130.797,64.394l-2.523,12.139l13.282,2.435l-10.759,-14.574Z" style="fill:#7e2b71;"/><path d="M144.841,71.585l-3.309,7.439l5.493,-1.838l-2.184,-5.601Z" style="fill:#c65b8a;"/><path d="M148.196,54.896l-3.355,16.689l2.184,5.601l2.32,-14.711l-1.149,-7.579Z" style="fill:#c7688e;"/><path d="M130.797,64.394l10.735,14.63l3.309,-7.439l-14.044,-7.191Z" style="fill:#c5628e;"/><path d="M131.349,51.282l13.492,20.303l-14.044,-7.191l0.552,-13.112Z" style="fill:#e3b6aa;"/><path d="M139.604,45.083l5.237,26.502l-13.492,-20.303l8.255,-6.199Z" style="fill:#e3b6aa;"/><path d="M148.196,54.896l-8.592,-9.813l5.237,26.502l3.355,-16.689Z" style="fill:#d68983;"/><path d="M144.359,38.559l-4.755,6.524l8.592,9.813l-3.837,-16.337Z" style="fill:#c66a8b;"/><path d="M141.601,31.303l-1.997,13.78l4.755,-6.524l-2.758,-7.256Z" style="fill:#d99c9b;"/><path d="M134.5,37.505l5.104,7.578l1.997,-13.78l-7.101,6.202Z" style="fill:#d99c9b;"/><path d="M122.542,46.34l8.807,4.942l8.255,-6.199l-17.062,1.257Z" style="fill:#e3b6aa;"/><path d="M134.5,37.505l-11.958,8.835l17.062,-1.257l-5.104,-7.578Z" style="fill:#e3b6aa;"/><path d="M128.997,31.303l5.503,6.202l7.101,-6.202l-12.604,0Z" style="fill:#dda39b;"/><path d="M139.122,26.901l-10.125,4.402l12.604,0l-2.479,-4.402Z" style="fill:#dda39b;"/><path d="M114.948,38.193l14.049,-6.89l5.503,6.202l-19.552,0.688Z" style="fill:#eecbca;"/><path d="M122.542,46.34l-7.594,-8.147l19.552,-0.688l-11.958,8.835Z" style="fill:#e3b6aa;"/><path d="M115.22,46.34l-0.272,-8.147l7.594,8.147l-7.322,0Z" style="fill:#cf7a91;"/><path d="M97.791,39.938l17.157,-1.745l0.272,8.147l-20.382,0l2.953,-6.402Z" style="fill:#c7688e;"/><path d="M100.091,30.487l-2.3,9.451l17.429,-11.723l-15.129,2.272Z" style="fill:#ecd4c3;"/><path d="M114.948,38.193l0.272,-9.978l-17.429,11.723l17.157,-1.745Z" style="fill:#ecc9c8;"/><path d="M120.852,26.65l-5.632,1.565l-0.272,9.978l5.904,-11.543Z" style="fill:#ecc9c8;"/><path d="M128.997,31.303l-8.145,-4.653l-5.904,11.543l14.049,-6.89Z" style="fill:#eecbca;"/><path d="M133.784,29.222l-12.932,-2.572l8.145,4.653l4.787,-2.081Z" style="fill:#cf7a91;"/><path d="M132,18.524l1.784,10.698l5.338,-2.321l-7.122,-8.377Z" style="fill:#eccac9;"/><path d="M117.9,17.164l14.1,1.36l1.784,10.698l-15.884,-12.058Z" style="fill:#eccac9;"/><path d="M120.852,26.65l12.932,2.572l-15.884,-12.058l2.952,9.486Z" style="fill:#db9f9a;"/><path d="M120.852,26.65l-2.952,-9.486l-2.68,11.051l5.632,-1.565Z" style="fill:#cf7a91;"/><path d="M128.732,14.68l-10.832,2.484l14.1,1.36l-3.268,-3.844Z" style="fill:#ebccc1;"/><path d="M107.226,23.622l7.994,4.593l2.68,-11.051l-10.674,6.458Z" style="fill:#ecd4c3;"/><path d="M107.493,16.013l-0.267,7.609l10.674,-6.458l-10.407,-1.151Z" style="fill:#ecd4c3;"/><path d="M98.237,14.274l9.256,1.739l-0.267,7.609l-7.589,0l-1.4,-9.348Z" style="fill:#cf7a91;"/><path d="M89.007,11.843l10.63,11.779l-1.4,-9.348l-9.23,-2.431Z" style="fill:#c65b8a;"/><path d="M92.631,19.254l7.46,11.233l-14.36,-13.86l6.9,2.627Z" style="fill:#96317c;"/><path d="M99.578,23.557l0.513,6.93l-7.46,-11.233l-3.624,-7.411l10.571,11.714Z" style="fill:#96317c;"/><path d="M107.226,23.622l7.994,4.593l-15.129,2.272l7.135,-6.865Z" style="fill:#ecd4c3;"/><path d="M99.583,23.622l7.643,0l-7.135,6.865l-0.508,-6.865Z" style="fill:#96317c;"/><path d="M115.22,11.038l2.68,6.126l10.832,-2.484l-6.35,-2.184l-7.162,-1.458Z" style="fill:#ebccc1;"/><path d="M107.493,16.013l-9.256,-1.739l16.983,-3.236l2.68,6.126l-10.407,-1.151Z" style="fill:#ebccc1;"/><path d="M90.968,6.242l7.269,8.032l-9.23,-2.431l1.961,-5.601Z" style="fill:#c65b8a;"/><path d="M109.8,5.34l-11.563,8.934l-7.269,-8.032l18.832,-0.902Z" style="fill:#ecd4c3;"/><path d="M115.131,11.02l-16.894,3.254l11.563,-8.934l5.331,5.68Z" style="fill:#ecd4c3;"/></g></g></svg>