<?xml version="1.0" encoding="UTF-8" standalone="no"?><!DOCTYPE svg PUBLIC "-//W3C//DTD SVG 1.1//EN" "http://www.w3.org/Graphics/SVG/1.1/DTD/svg11.dtd"><svg width="100%" height="100%" viewBox="0 0 36 36" version="1.1" xmlns="http://www.w3.org/2000/svg" xmlns:xlink="http://www.w3.org/1999/xlink" xml:space="preserve" style="fill-rule:evenodd;clip-rule:evenodd;stroke-linejoin:round;stroke-miterlimit:1.41421;"><path d="M36,0l0,36l-36,0l0,-36l36,0Zm-11.817,28.125c0.725,1.184 1.668,2.054 3.337,2.054c1.402,0 2.297,-0.7 2.297,-1.668c0,-1.16 -0.92,-1.571 -2.463,-2.246l-0.845,-0.363c-2.442,-1.04 -4.063,-2.343 -4.063,-5.097c0,-2.537 1.933,-4.468 4.954,-4.468c2.151,0 3.697,0.748 4.811,2.708l-2.634,1.692c-0.58,-1.04 -1.206,-1.45 -2.177,-1.45c-0.991,0 -1.619,0.628 -1.619,1.45c0,1.014 0.629,1.425 2.08,2.054l0.846,0.362c2.874,1.233 4.497,2.489 4.497,5.314c0,3.046 -2.393,4.715 -5.606,4.715c-3.141,0 -5.171,-1.497 -6.164,-3.46l2.749,-1.597Zm-11.95,0.293c0.531,0.943 1.014,1.74 2.177,1.74c1.111,0 1.812,-0.435 1.812,-2.125l0,-11.503l3.383,0l0,11.548c0,3.503 -2.054,5.097 -5.051,5.097c-2.709,0 -4.277,-1.401 -5.075,-3.09l2.754,-1.667Z" style="fill:#e4d9d5;"/></svg>