<?xml version="1.0" encoding="UTF-8" standalone="no"?><!DOCTYPE svg PUBLIC "-//W3C//DTD SVG 1.1//EN" "http://www.w3.org/Graphics/SVG/1.1/DTD/svg11.dtd"><svg width="100%" height="100%" viewBox="0 0 41 36" version="1.1" xmlns="http://www.w3.org/2000/svg" xmlns:xlink="http://www.w3.org/1999/xlink" xml:space="preserve" style="fill-rule:evenodd;clip-rule:evenodd;stroke-linejoin:round;stroke-miterlimit:1.41421;"><g><path d="M33.268,11.668c-0.43,-0.148 -0.865,-0.284 -1.302,-0.41c0.072,-0.295 0.139,-0.591 0.201,-0.889c0.986,-4.786 0.341,-8.642 -1.86,-9.911c-2.111,-1.217 -5.563,0.052 -9.05,3.086c-0.343,0.3 -0.679,0.608 -1.007,0.925c-0.22,-0.211 -0.443,-0.417 -0.67,-0.62c-3.654,-3.244 -7.317,-4.611 -9.516,-3.338c-2.109,1.221 -2.734,4.846 -1.846,9.382c0.088,0.449 0.188,0.896 0.299,1.34c-0.518,0.147 -1.019,0.304 -1.497,0.471c-4.284,1.493 -7.02,3.834 -7.02,6.262c0,2.508 2.937,5.023 7.399,6.548c0.362,0.123 0.727,0.237 1.094,0.342c-0.119,0.478 -0.225,0.96 -0.318,1.444c-0.846,4.457 -0.185,7.996 1.918,9.21c2.172,1.252 5.818,-0.035 9.369,-3.139c0.28,-0.245 0.562,-0.505 0.844,-0.778c0.355,0.343 0.72,0.676 1.094,0.998c3.439,2.959 6.835,4.154 8.936,2.938c2.171,-1.257 2.876,-5.058 1.96,-9.684c-0.07,-0.353 -0.151,-0.714 -0.243,-1.082c0.256,-0.075 0.508,-0.153 0.753,-0.235c4.638,-1.536 7.656,-4.021 7.656,-6.562c0,-2.437 -2.824,-4.793 -7.194,-6.298l0,0Zm-2.668,14.513c0.405,2.045 0.463,3.894 0.195,5.34c-0.241,1.299 -0.726,2.165 -1.325,2.512c-1.275,0.738 -4.002,-0.221 -6.943,-2.752c-0.337,-0.29 -0.677,-0.6 -1.017,-0.928c1.14,-1.247 2.279,-2.697 3.391,-4.306c1.956,-0.174 3.804,-0.458 5.48,-0.845c0.083,0.333 0.156,0.659 0.219,0.979l0,0Zm-16.806,7.724c-1.245,0.44 -2.238,0.453 -2.837,0.107c-1.277,-0.736 -1.807,-3.578 -1.084,-7.389c0.087,-0.451 0.185,-0.899 0.296,-1.344c1.657,0.367 3.492,0.631 5.453,0.79c1.119,1.575 2.291,3.023 3.473,4.291c-0.251,0.243 -0.508,0.48 -0.771,0.71c-1.57,1.372 -3.143,2.346 -4.529,2.835l-0.001,0Zm6.504,-4.789c-0.819,-0.884 -1.636,-1.862 -2.434,-2.913c0.775,0.03 1.564,0.045 2.367,0.045c0.825,0 1.64,-0.018 2.443,-0.054c-0.788,1.071 -1.584,2.05 -2.376,2.922Zm5.58,-7.858c-0.613,1.065 -1.261,2.109 -1.941,3.132c-1.201,0.086 -2.442,0.13 -3.706,0.13c-1.259,0 -2.484,-0.039 -3.663,-0.116c-0.699,-1.02 -1.358,-2.066 -1.978,-3.136c-0.616,-1.065 -1.192,-2.152 -1.726,-3.261c0.533,-1.108 1.107,-2.196 1.721,-3.262l0,0.001c0.614,-1.066 1.269,-2.108 1.962,-3.124c1.203,-0.091 2.437,-0.138 3.684,-0.138c1.253,0 2.489,0.048 3.692,0.139c0.686,1.015 1.336,2.053 1.949,3.113c0.617,1.063 1.198,2.146 1.744,3.247c-0.54,1.112 -1.12,2.204 -1.738,3.275l0,0Zm-11.513,2.953c-1.326,-0.147 -2.575,-0.348 -3.729,-0.599c0.357,-1.154 0.797,-2.353 1.311,-3.572c0.366,0.707 0.749,1.405 1.147,2.094c0.407,0.702 0.831,1.395 1.271,2.077l0,0Zm14.042,-3.962c-0.332,0.63 -0.676,1.255 -1.032,1.873c-0.4,0.694 -0.814,1.38 -1.242,2.059c1.334,-0.161 2.601,-0.376 3.774,-0.644c-0.362,-1.134 -0.818,-2.327 -1.358,-3.559l-0.071,0.135l-0.071,0.136Zm-20.449,2.629c-1.973,-0.674 -3.602,-1.551 -4.719,-2.507c-1.004,-0.859 -1.511,-1.713 -1.511,-2.405c0,-1.473 2.197,-3.353 5.861,-4.63c0.46,-0.16 0.924,-0.306 1.392,-0.438c0.507,1.647 1.171,3.369 1.972,5.11c-0.811,1.767 -1.485,3.517 -1.996,5.183c-0.336,-0.096 -0.669,-0.2 -0.999,-0.313l0,0Zm24.304,0.01c4.005,-1.327 6.472,-3.358 6.472,-4.922c0,-1.469 -2.284,-3.374 -6.028,-4.663c-0.387,-0.134 -0.789,-0.26 -1.203,-0.38c-0.498,1.611 -1.162,3.313 -1.969,5.051c0.845,1.781 1.536,3.505 2.049,5.126c0.231,-0.068 0.458,-0.139 0.679,-0.212l0,0Zm-4.894,-9.018c-0.395,-0.683 -0.806,-1.358 -1.23,-2.023c1.291,0.163 2.528,0.379 3.689,0.645c-0.349,1.117 -0.783,2.286 -1.295,3.484c-0.374,-0.71 -0.762,-1.412 -1.164,-2.106l0,0Zm-14.281,0.012c-0.397,0.689 -0.777,1.386 -1.142,2.093c-0.503,-1.194 -0.934,-2.368 -1.286,-3.502c1.155,-0.258 2.386,-0.469 3.669,-0.629c-0.43,0.669 -0.843,1.349 -1.241,2.038l0,0Zm16.357,-11.926c1.354,0.781 1.881,3.932 1.03,8.065c-0.056,0.269 -0.116,0.537 -0.182,0.804c-1.678,-0.387 -3.501,-0.676 -5.41,-0.855c-1.112,-1.583 -2.264,-3.022 -3.42,-4.268c0.303,-0.293 0.613,-0.577 0.93,-0.854c2.987,-2.6 5.779,-3.626 7.052,-2.892l0,0Zm-19.53,7.605c-0.76,-3.887 -0.255,-6.818 1.016,-7.554c1.354,-0.784 4.347,0.334 7.502,3.135c0.201,0.179 0.404,0.367 0.607,0.56c-1.176,1.263 -2.337,2.7 -3.447,4.266c-1.903,0.176 -3.725,0.46 -5.399,0.839c-0.104,-0.413 -0.196,-0.829 -0.279,-1.247l0,0.001Zm10.185,-2.458c-0.759,0.829 -1.513,1.736 -2.25,2.708c1.594,-0.074 3.189,-0.074 4.783,0.001c-0.786,-1.046 -1.584,-2.011 -2.381,-2.874l-0.076,0.082l-0.076,0.083Z" style="fill:#e4d9d5;"/><path d="M20.231,14.353c1.996,0 3.613,1.617 3.613,3.613c0,1.995 -1.617,3.613 -3.613,3.613c-1.995,0 -3.613,-1.618 -3.613,-3.613c0,-1.996 1.618,-3.613 3.613,-3.613" style="fill:#e4d9d5;fill-rule:nonzero;"/></g></svg>