<?xml version="1.0" encoding="UTF-8" standalone="no"?><!DOCTYPE svg PUBLIC "-//W3C//DTD SVG 1.1//EN" "http://www.w3.org/Graphics/SVG/1.1/DTD/svg11.dtd"><svg width="100%" height="100%" viewBox="0 0 36 36" version="1.1" xmlns="http://www.w3.org/2000/svg" xmlns:xlink="http://www.w3.org/1999/xlink" xml:space="preserve" style="fill-rule:evenodd;clip-rule:evenodd;stroke-linejoin:round;stroke-miterlimit:1.41421;"><g><circle cx="17.999" cy="17.999" r="7.349" style="fill:#e4d9d5;"/><path d="M32.995,5.529c0,-1.396 -1.131,-2.527 -2.527,-2.527c-0.608,0 -1.196,0.22 -1.654,0.62c-3.013,-2.273 -6.759,-3.622 -10.816,-3.622c-9.924,0 -17.998,8.074 -17.998,17.999c0,9.924 8.074,17.999 17.999,17.999c9.924,0 17.998,-8.075 17.998,-17.999c0,-4.056 -1.349,-7.803 -3.621,-10.816c0.399,-0.458 0.62,-1.046 0.619,-1.654l0,0Zm-14.997,29.863c-9.59,0 -17.393,-7.803 -17.393,-17.394c0,-9.59 7.803,-17.393 17.394,-17.393c3.899,0 7.502,1.29 10.407,3.466c-0.303,0.426 -0.465,0.936 -0.465,1.458c0,1.396 1.131,2.527 2.527,2.527c0.543,0 1.045,-0.173 1.457,-0.465c2.176,2.904 3.466,6.507 3.466,10.407c0.001,9.591 -7.802,17.394 -17.393,17.394l0,0Z" style="fill:#e4d9d5;fill-rule:nonzero;"/></g></svg>