<?xml version="1.0" encoding="UTF-8" standalone="no"?><!DOCTYPE svg PUBLIC "-//W3C//DTD SVG 1.1//EN" "http://www.w3.org/Graphics/SVG/1.1/DTD/svg11.dtd"><svg width="100%" height="100%" viewBox="0 0 51 51" version="1.1" xmlns="http://www.w3.org/2000/svg" xmlns:xlink="http://www.w3.org/1999/xlink" xml:space="preserve" style="fill-rule:evenodd;clip-rule:evenodd;stroke-linejoin:round;stroke-miterlimit:1.41421;"><path d="M0,25.047c0,-4.542 1.119,-8.733 3.356,-12.574c2.238,-3.84 5.277,-6.879 9.117,-9.117c3.841,-2.237 8.032,-3.356 12.574,-3.356c4.542,0 8.733,1.119 12.573,3.356c3.841,2.238 6.88,5.277 9.118,9.117c2.237,3.841 3.356,8.032 3.356,12.574c0,4.542 -1.119,8.733 -3.356,12.573c-2.238,3.841 -5.277,6.88 -9.118,9.118c-3.84,2.237 -8.031,3.356 -12.573,3.356c-4.542,0 -8.733,-1.119 -12.574,-3.356c-3.84,-2.238 -6.879,-5.277 -9.117,-9.118c-2.237,-3.84 -3.356,-8.031 -3.356,-12.573Zm4.158,0c0,5.21 1.753,9.802 5.26,13.776c1.603,-3.14 4.141,-6.128 7.614,-8.967c3.473,-2.839 6.863,-4.625 10.169,-5.36c-0.501,-1.169 -0.985,-2.221 -1.453,-3.156c-5.744,1.837 -11.955,2.755 -18.635,2.755c-1.302,0 -2.271,-0.017 -2.905,-0.05c0,0.134 -0.008,0.301 -0.025,0.501c-0.017,0.2 -0.025,0.367 -0.025,0.501Zm0.651,-5.16c0.735,0.067 1.82,0.1 3.256,0.1c5.577,0 10.87,-0.751 15.88,-2.254c-2.538,-4.508 -5.327,-8.265 -8.366,-11.271c-2.638,1.336 -4.901,3.189 -6.788,5.561c-1.886,2.371 -3.214,4.992 -3.982,7.864Zm7.464,21.641c3.774,2.939 8.032,4.408 12.774,4.408c2.471,0 4.926,-0.467 7.364,-1.403c-0.668,-5.71 -1.971,-11.237 -3.908,-16.581c-3.072,0.668 -6.169,2.355 -9.292,5.06c-3.123,2.705 -5.435,5.544 -6.938,8.516Zm7.664,-36.669c2.939,3.039 5.661,6.83 8.166,11.371c4.541,-1.903 7.965,-4.324 10.269,-7.263c-3.874,-3.206 -8.316,-4.809 -13.325,-4.809c-1.703,0 -3.406,0.234 -5.11,0.701Zm9.969,14.928c0.501,1.069 1.069,2.421 1.703,4.058c2.472,-0.234 5.16,-0.351 8.065,-0.351c2.071,0 4.125,0.05 6.162,0.15c-0.267,-4.542 -1.904,-8.582 -4.909,-12.122c-2.171,3.239 -5.845,5.994 -11.021,8.265Zm2.956,7.564c1.703,4.943 2.855,10.019 3.456,15.229c2.638,-1.703 4.792,-3.891 6.462,-6.563c1.67,-2.671 2.672,-5.56 3.006,-8.666c-2.438,-0.167 -4.659,-0.25 -6.663,-0.25c-1.836,0 -3.924,0.083 -6.261,0.25Z" style="fill:#7e2b71;fill-rule:nonzero;"/></svg>