<?xml version="1.0" encoding="UTF-8" standalone="no"?><!DOCTYPE svg PUBLIC "-//W3C//DTD SVG 1.1//EN" "http://www.w3.org/Graphics/SVG/1.1/DTD/svg11.dtd"><svg width="100%" height="100%" viewBox="0 0 75 18" version="1.1" xmlns="http://www.w3.org/2000/svg" xmlns:xlink="http://www.w3.org/1999/xlink" xml:space="preserve" style="fill-rule:evenodd;clip-rule:evenodd;stroke-linejoin:round;stroke-miterlimit:1.41421;"><g><rect x="60.301" y="0" width="13.956" height="2.329" style="fill:#bc8e9d;"/><rect x="50.791" y="7.071" width="23.465" height="2.329" style="fill:#a96698;"/><rect x="55.557" y="14.434" width="18.7" height="2.329" style="fill:#963f94;"/></g><g><path d="M3.161,7.525l2.866,5.731l2.852,-5.731l0,5.352l2.276,0l0,-9.37l-2.67,0l-2.458,5.043l-2.487,-5.043l-2.655,0l0,9.37l2.276,0l0,-5.352Z" style="fill:#65667f;fill-rule:nonzero;"/><path d="M15.496,5.347l3.09,0l0,-1.84l-5.366,0l0,9.37l5.366,0l0,-1.84l-3.09,0l0,-1.939l3.09,0l0,-1.84l-3.09,0l0,-1.911Z" style="fill:#65667f;fill-rule:nonzero;"/><path d="M23.068,7.539l3.414,5.338l2.275,0l0,-9.37l-2.275,0l0,5.268l-3.414,-5.268l-2.276,0l0,9.37l2.276,0l0,-5.338Z" style="fill:#65667f;fill-rule:nonzero;"/><path d="M33.379,3.507l-2.275,0l0,5.352c0,1.461 0.267,2.36 0.871,3.035c0.674,0.744 1.728,1.166 2.894,1.166c1.123,0 2.121,-0.394 2.753,-1.082c0.646,-0.703 0.969,-1.742 0.969,-3.119l0,-5.352l-2.275,0l0,5.45c0,0.675 -0.071,1.068 -0.239,1.377c-0.211,0.365 -0.703,0.618 -1.222,0.618c-0.478,0 -0.914,-0.21 -1.152,-0.533c-0.225,-0.324 -0.324,-0.759 -0.324,-1.462l0,-5.45Z" style="fill:#65667f;fill-rule:nonzero;"/></g></svg>